<?xml version="1.0" encoding="UTF-8" standalone="no"?>
<!-- Created with Inkscape (http://www.inkscape.org/) -->

<svg
   xmlns:osb="http://www.openswatchbook.org/uri/2009/osb"
   xmlns:dc="http://purl.org/dc/elements/1.1/"
   xmlns:cc="http://creativecommons.org/ns#"
   xmlns:rdf="http://www.w3.org/1999/02/22-rdf-syntax-ns#"
   xmlns:svg="http://www.w3.org/2000/svg"
   xmlns="http://www.w3.org/2000/svg"
   xmlns:xlink="http://www.w3.org/1999/xlink"
   xmlns:sodipodi="http://sodipodi.sourceforge.net/DTD/sodipodi-0.dtd"
   xmlns:inkscape="http://www.inkscape.org/namespaces/inkscape"
   width="200mm"
   height="200mm"
   viewBox="0 0 708.66142 708.66141"
   id="svg2"
   version="1.1"
   inkscape:version="0.91 r13725"
   sodipodi:docname="shredder.svg">
  <defs
     id="defs4">
    <linearGradient
       id="linearGradient11633"
       osb:paint="solid">
      <stop
         style="stop-color:#f79c00;stop-opacity:1;"
         offset="0"
         id="stop11635" />
    </linearGradient>
    <linearGradient
       inkscape:collect="always"
       id="linearGradient10932">
      <stop
         style="stop-color:#dfd927;stop-opacity:1;"
         offset="0"
         id="stop10934" />
      <stop
         style="stop-color:#b3ae12;stop-opacity:0"
         offset="1"
         id="stop10936" />
    </linearGradient>
    <linearGradient
       id="linearGradient8713"
       osb:paint="solid">
      <stop
         style="stop-color:#81bdca;stop-opacity:1;"
         offset="0"
         id="stop8715" />
    </linearGradient>
    <filter
       style="color-interpolation-filters:sRGB;"
       inkscape:label="Drop Shadow"
       id="filter10629">
      <feFlood
         flood-opacity="0.498039"
         flood-color="rgb(0,0,0)"
         result="flood"
         id="feFlood10631" />
      <feComposite
         in="flood"
         in2="SourceGraphic"
         operator="in"
         result="composite1"
         id="feComposite10633" />
      <feGaussianBlur
         in="composite1"
         stdDeviation="3"
         result="blur"
         id="feGaussianBlur10635" />
      <feOffset
         dx="-1"
         dy="3"
         result="offset"
         id="feOffset10637" />
      <feComposite
         in="offset"
         in2="offset"
         operator="atop"
         result="composite2"
         id="feComposite10639" />
    </filter>
    <linearGradient
       inkscape:collect="always"
       xlink:href="#linearGradient10932"
       id="linearGradient10938"
       x1="430.11621"
       y1="462.51157"
       x2="447.17206"
       y2="491.51157"
       gradientUnits="userSpaceOnUse"
       gradientTransform="translate(21,11)" />
    <linearGradient
       inkscape:collect="always"
       xlink:href="#linearGradient10932"
       id="linearGradient10948"
       x1="311.26456"
       y1="516.96869"
       x2="302.92041"
       y2="545.96869"
       gradientUnits="userSpaceOnUse"
       gradientTransform="translate(21,11)" />
    <pattern
       patternUnits="userSpaceOnUse"
       width="36"
       height="934"
       patternTransform="translate(-84.193871,-97.037028)"
       id="pattern11737">
      <rect
         y="0"
         x="0"
         height="934"
         width="36"
         id="rect11735"
         style="opacity:0.98999999;fill:#00262b;fill-opacity:1;fill-rule:nonzero;stroke:none;stroke-width:2;stroke-linecap:butt;stroke-linejoin:miter;stroke-miterlimit:4;stroke-dasharray:none;stroke-dashoffset:0;stroke-opacity:1" />
    </pattern>
  </defs>
  <sodipodi:namedview
     id="base"
     pagecolor="#ffffff"
     bordercolor="#666666"
     borderopacity="1.0"
     inkscape:pageopacity="0.0"
     inkscape:pageshadow="2"
     inkscape:zoom="1"
     inkscape:cx="399.33858"
     inkscape:cy="361.00925"
     inkscape:document-units="px"
     inkscape:current-layer="layer3"
     showgrid="false"
     inkscape:window-width="1916"
     inkscape:window-height="1145"
     inkscape:window-x="0"
     inkscape:window-y="32"
     inkscape:window-maximized="0"
     showguides="false"
     borderlayer="false" />
  <metadata
     id="metadata7">
    <rdf:RDF>
      <cc:Work
         rdf:about="">
        <dc:format>image/svg+xml</dc:format>
        <dc:type
           rdf:resource="http://purl.org/dc/dcmitype/StillImage" />
        <dc:title></dc:title>
        <cc:license
           rdf:resource="http://creativecommons.org/licenses/by-sa/3.0/" />
      </cc:Work>
      <cc:License
         rdf:about="http://creativecommons.org/licenses/by-sa/3.0/">
        <cc:permits
           rdf:resource="http://creativecommons.org/ns#Reproduction" />
        <cc:permits
           rdf:resource="http://creativecommons.org/ns#Distribution" />
        <cc:requires
           rdf:resource="http://creativecommons.org/ns#Notice" />
        <cc:requires
           rdf:resource="http://creativecommons.org/ns#Attribution" />
        <cc:permits
           rdf:resource="http://creativecommons.org/ns#DerivativeWorks" />
        <cc:requires
           rdf:resource="http://creativecommons.org/ns#ShareAlike" />
      </cc:License>
    </rdf:RDF>
  </metadata>
  <g
     inkscape:label="base"
     inkscape:groupmode="layer"
     id="layer1"
     transform="translate(0,-343.70079)"
     style="display:inline">
    <circle
       style="opacity:1;fill:#0094aa;fill-opacity:1;fill-rule:nonzero;stroke:#000000;stroke-width:4;stroke-linecap:butt;stroke-linejoin:miter;stroke-miterlimit:3.70000005;stroke-dasharray:none;stroke-dashoffset:0;stroke-opacity:1"
       id="path10448"
       cx="356.96765"
       cy="699.39453"
       r="342.68924" />
  </g>
  <g
     inkscape:groupmode="layer"
     id="layer3"
     inkscape:label="grade"
     style="display:inline;opacity:1">
    <circle
       r="342.68924"
       cy="699.39453"
       cx="356.96765"
       id="circle10450"
       style="display:inline;opacity:1;fill:#0388bf;fill-opacity:1;fill-rule:nonzero;stroke:none;stroke-width:14.3007555;stroke-linecap:butt;stroke-linejoin:miter;stroke-miterlimit:3.70000005;stroke-dasharray:none;stroke-dashoffset:0;stroke-opacity:1"
       transform="translate(0,-343.70079)" />
  </g>
  <g
     inkscape:groupmode="layer"
     id="layer4"
     inkscape:label="stripes"
     style="display:inline">
    <path
       style="fill:#000000;fill-opacity:0.49779741;opacity:0.162"
       d="m 341.5,355.66142 0,-342.499999 5,0 5,0 0,342.499999 0,342.5 -5,0 -5,0 0,-342.5 z m 20,0 0,-342.609579 4.75,0.30479 4.75,0.30479 0,341.999999 0,342 -4.75,0.30479 -4.75,0.30479 0,-342.60958 z m -37.25,340.78375 -2.75,-0.41659 0,-340.30274 0,-340.302739 3.75,-0.61983 c 2.0625,-0.34091 4.3125,-0.62479 5,-0.63084 0.99758,-0.009 1.25,68.94979 1.25,341.488989 l 0,341.5 -2.25,-0.14983 c -1.2375,-0.0824 -3.4875,-0.3373 -5,-0.56642 z m 57.25,-340.78375 0,-341.499999 3.41821,0 c 1.88002,0 4.13002,0.27314 5,0.60699 1.4381,0.55185 1.58179,31.51915 1.58179,340.893009 0,309.37386 -0.14369,340.34116 -1.58179,340.89301 -0.86998,0.33385 -3.11998,0.60699 -5,0.60699 l -3.41821,0 0,-341.5 z M 308,694.44655 c -1.1,-0.19965 -3.01316,-0.57922 -4.25146,-0.84348 L 301.49707,693.12258 301.74854,355.392 302,17.661421 l 4.26422,-0.56912 c 2.34531,-0.31301 4.48281,-0.35051 4.75,-0.0833 0.80771,0.80771 0.54397,677.004689 -0.26422,677.417499 -0.4125,0.21069 -1.65,0.21973 -2.75,0.0201 z m 93.5,-338.65732 c 0,-271.041449 0.25243,-339.625589 1.25,-339.616799 0.6875,0.006 2.9375,0.28993 5,0.63084 l 3.75,0.61983 0,337.810149 c 0,185.79557 -0.38042,338.04525 -0.84538,338.33261 -0.46496,0.28736 -2.71496,0.82143 -5,1.18683 l -4.15462,0.66435 0,-339.62781 z m 19,-0.21571 0,-336.587899 4.25,0.70325 c 2.3375,0.38679 4.5875,0.9029 5,1.14692 0.4125,0.24401 0.75,150.920949 0.75,334.837639 l 0,334.39398 -3.75,1.04143 c -2.0625,0.57278 -4.3125,1.04394 -5,1.047 -0.99754,0.004 -1.25,-67.97569 -1.25,-336.58232 z M 285,690.28329 l -3,-0.6415 -0.25149,-333.4387 c -0.13831,-183.39128 0.0867,-333.776329 0.5,-334.188999 0.41332,-0.41266 2.66399,-1.05585 5.00149,-1.42929 l 4.25,-0.679 0,335.627809 c 0,319.02394 -0.0866,335.62196 -1.75,335.5095 -0.9625,-0.0651 -3.1,-0.407 -4.75,-0.75982 z m 156.04722,-2.90798 C 440.1993,686.52739 440.40167,24.335491 441.25,23.852021 c 0.4125,-0.23509 2.55,0.0903 4.75,0.72302 l 4,1.15046 0,329.857579 0,329.85759 -4.20278,1.24093 c -2.31153,0.68251 -4.44903,0.99468 -4.75,0.69371 z M 264.5,685.26666 l -2.5,-0.69541 0,-328.84454 0,-328.844539 4.5,-1.34519 c 2.475,-0.73986 4.6125,-1.35203 4.75,-1.36038 0.1375,-0.008 0.25,148.934819 0.25,330.984819 l 0,331 -2.25,-0.0997 c -1.2375,-0.0548 -3.375,-0.41261 -4.75,-0.79508 z m 196,-329.71365 0,-326.608409 2.4559,0.61639 c 1.35074,0.33902 3.60143,1.05193 5.00152,1.58424 l 2.54563,0.96785 L 470.25153,355.77688 470,679.44067 l -4.5,1.3452 c -2.475,0.73985 -4.6125,1.35202 -4.75,1.36037 -0.1375,0.008 -0.25,-146.9586 -0.25,-326.59323 z M 244.25,678.862 l -2.75,-1.08666 0,-322.21296 0,-322.212959 4.67814,-1.594 c 2.57298,-0.8767 4.82298,-1.594 5,-1.594 0.17702,0 0.32186,146.249999 0.32186,324.999999 l 0,325 -2.25,-0.10638 c -1.2375,-0.0585 -3.4875,-0.59538 -5,-1.19304 z M 480.5,355.66142 c 0,-255.35287 0.25164,-319.620239 1.25,-319.248309 0.6875,0.25611 2.9375,1.06966 5,1.80787 l 3.75,1.34222 0,316.098219 0,316.09822 -3.75,1.34222 c -2.0625,0.73821 -4.3125,1.55176 -5,1.80787 -0.99836,0.37193 -1.25,-63.89544 -1.25,-319.24831 z m -255.25,315.84152 -3.75,-1.55543 0,-314.28446 0,-314.284469 4.02024,-1.60858 c 2.21113,-0.88472 4.46113,-1.60858 5,-1.60858 0.63762,0 0.97976,110.871849 0.97976,317.499999 0,253.36082 -0.25252,317.48959 -1.25,317.44847 -0.6875,-0.0283 -2.9375,-0.75147 -5,-1.60695 z M 500.5,355.66142 c 0,-170.775 0.32246,-310.499999 0.71657,-310.499999 0.39411,0 2.64411,0.73614 5,1.63586 l 4.28343,1.63586 0,306.843809 0,306.84382 -3.96016,2.02033 c -2.17809,1.11117 -4.42809,2.02032 -5,2.02032 -0.71755,0 -1.03984,-96.23612 -1.03984,-310.5 z M 206.24838,662.5363 201.49676,660.12144 201.74838,355.39143 202,50.661421 l 4.5,-2.2688 4.5,-2.2688 0.25315,155.099749 c 0.13923,85.30486 0.13923,224.54102 0,309.41367 L 211,664.95116 206.24838,662.5363 Z M 520.5,355.66142 c 0,-209.54772 0.31837,-300.499999 1.05188,-300.499999 0.57854,0 2.82507,1.0125 4.9923,2.25 l 3.94042,2.25 0.008,296.001719 0.008,296.00171 -4.25,2.25106 c -2.3375,1.23809 -4.5875,2.24982 -5,2.24829 C 520.8375,656.1622 520.5,520.93642 520.5,355.66142 Z M 185.74832,651.59428 181.49664,649.04606 181.74832,355.38555 182,61.725041 l 4,-2.26536 c 2.2,-1.24595 4.3375,-2.27276 4.75,-2.28181 0.4125,-0.009 0.75,134.308549 0.75,298.483549 0,164.175 -0.3375,298.49574 -0.75,298.49054 -0.4125,-0.005 -2.66326,-1.15616 -5.00168,-2.55768 z M 540.5,355.66142 l 0,-289.730019 2.5,1.61501 c 1.375,0.88826 3.625,2.34176 5,3.23002 l 2.5,1.61501 0,283.269979 0,283.26998 -2.5,1.61501 c -1.375,0.88826 -3.625,2.34176 -5,3.23002 l -2.5,1.61501 0,-289.73002 z m -374.75,283.40062 -4.25,-3.0102 0,-280.39717 0,-280.397169 4.43018,-3.04804 c 2.43659,-1.67642 4.68659,-3.04804 5,-3.04804 0.3134,0 0.56982,128.924999 0.56982,286.499999 0,157.575 -0.3375,286.47994 -0.75,286.45541 -0.4125,-0.0245 -2.6625,-1.39918 -5,-3.05479 z M 560.5,355.66142 c 0,-151.525 0.29115,-275.499999 0.64701,-275.499999 0.35585,0 2.60585,1.60513 5,3.56695 l 4.35299,3.56695 0,268.312589 0,268.31259 -4.4183,3.62046 c -2.43006,1.99125 -4.68006,3.62046 -5,3.62046 -0.31993,0 -0.5817,-123.975 -0.5817,-275.5 z m -414.76548,268.72016 -4.26549,-3.72016 0.0155,-265.12954 0.0155,-265.129539 4.4183,-3.62046 c 2.43006,-1.99125 4.68006,-3.62046 5,-3.62046 0.31993,0 0.5817,122.624999 0.5817,272.499999 0,149.875 -0.3375,272.48657 -0.75,272.47016 -0.4125,-0.0164 -2.66947,-1.70391 -5.01548,-3.75 z M 580.5,355.66142 c 0,-142.725 0.35631,-259.499999 0.79179,-259.499999 0.43549,0 2.68549,1.92953 5,4.287849 l 4.20821,4.28785 0,250.9243 0,250.9243 -4.20821,4.28785 c -2.31451,2.35832 -4.56451,4.28785 -5,4.28785 -0.43548,0 -0.79179,-116.775 -0.79179,-259.5 z m -454.75,251.57312 -4.25,-3.84486 0,-247.95759 0,-247.9576 5,-4.21606 5,-4.216059 0,256.059519 c 0,140.83274 -0.3375,256.04107 -0.75,256.01852 -0.4125,-0.0226 -2.6625,-1.7712 -5,-3.88587 z M 600.5,355.66142 c 0,-144.77486 0.3642,-240.5 0.91501,-240.5 0.50326,0 2.75326,2.08836 5,4.64079 l 4.08499,4.64079 0,231.21842 0,231.21842 -4.08499,4.64079 c -2.24674,2.55243 -4.49674,4.64079 -5,4.64079 -0.55081,0 -0.91501,-95.72514 -0.91501,-240.5 z m -494.75,231.56392 -4.25,-4.9351 0,-226.62882 0,-226.62882 4.25,-4.9351 c 2.3375,-2.7143 4.5875,-4.93532 5,-4.93559 0.4125,-2.7e-4 0.75,106.42451 0.75,236.49951 0,130.075 -0.3375,236.49978 -0.75,236.49951 -0.4125,-2.7e-4 -2.6625,-2.22129 -5,-4.93559 z M 620.5,355.66142 c 0,-120.175 0.3375,-218.47488 0.75,-218.44419 0.4125,0.0307 2.6625,2.47945 5,5.44166 l 4.25,5.38585 0,207.61668 0,207.61668 -4.25,5.38585 c -2.3375,2.96221 -4.5875,5.41096 -5,5.44166 -0.4125,0.0307 -0.75,-98.26919 -0.75,-218.44419 z m -534.750002,207.83113 -4.25,-5.60857 0,-202.18068 0,-202.18067 4.0448,-5.4306 c 2.22464,-2.98684 4.47464,-5.58061 5,-5.76394 0.60499,-0.21113 0.9552,77.97349 0.9552,213.25 0,117.47083 -0.3375,213.56977 -0.75,213.55319 -0.4125,-0.0166 -2.6625,-2.55401 -5,-5.63873 z M 640.5,355.86142 c 0,-105.985 0.15898,-192.7 0.35328,-192.7 0.19431,0 2.44431,3.14461 5,6.98801 l 4.64672,6.98802 0,178.35695 0,178.35695 -4.10253,6.40503 c -2.2564,3.52277 -4.5064,6.83254 -5,7.35504 -0.53014,0.56117 -0.89747,-77.92149 -0.89747,-191.75 z m -574.250002,179.01453 -4.75,-7.78547 0,-171.6306 0,-171.63059 4.75,-7.58394 4.75,-7.58393 0.25514,93.82942 c 0.14033,51.60619 0.14033,135.75619 0,187 l -0.25514,93.17058 -4.75,-7.78547 z M 660.5508,354.91142 l 0.0508,-159.25 4.89841,9.5 4.89841,9.5 0.0508,140.76998 0.0508,140.76998 -4.51004,8.98002 c -2.48052,4.93901 -4.73052,8.98002 -5,8.98002 -0.26948,0 -0.4671,-71.6625 -0.43916,-159.25 z m -614.406902,142.24459 -4.6439,-10.00541 0.0438,-131.74459 0.0438,-131.74459 4.86832,-10 4.86831,-10 0.0879,151.75 c 0.0484,83.4625 -0.0723,151.75 -0.26819,151.75 -0.19585,0 -2.44585,-4.50244 -5,-10.00541 z M 680.53041,355.11142 c 0.0189,-70.64415 0.38224,-112.84824 0.96287,-111.85514 0.51286,0.87718 2.74917,7.8076 4.96959,15.40094 l 4.03713,13.80608 -0.0113,83.09906 -0.0113,83.09906 -4.03571,13.99705 c -2.21964,7.69838 -4.46453,14.42588 -4.98865,14.95 -0.60393,0.60393 -0.94181,-40.59836 -0.92254,-112.49705 z M 28.549618,449.32803 c -1.11929,-3.75837 -3.16335,-11.83157 -4.54235,-17.94046 l -2.50727,-11.10708 0.0119,-64.80953 0.0118,-64.80954 2.91928,-12.5 c 1.60561,-6.875 3.80534,-15.2 4.8883,-18.5 l 1.96901,-6 0.0999,101.25 c 0.0549,55.6875 -0.10609,101.25 -0.3578,101.25 -0.25171,0 -1.37344,-3.07503 -2.49273,-6.83339 z"
       id="path12606"
       inkscape:connector-curvature="0" />
  </g>
  <g
     inkscape:groupmode="layer"
     id="layer5"
     inkscape:label="shadow"
     style="display:inline;opacity:0.79500002" />
  <g
     inkscape:groupmode="layer"
     id="layer2"
     inkscape:label="broom"
     style="display:inline">
    <path
       style="fill:#f4f2b5;fill-opacity:1;fill-rule:evenodd;stroke:none;stroke-width:1;stroke-linecap:butt;stroke-linejoin:miter;stroke-miterlimit:4;stroke-dasharray:none;stroke-opacity:1"
       d="m 527.53634,435.17608 c 15.52388,14.844 34.47508,22.90347 53.63569,30.54839 l -12.57305,5.79486 -1.3684,9.0735 -6.79265,-1.16886 -7.14184,2.8226 0.69144,5.2317 -8.43194,4.43347 c -4.23478,2.43209 -8.95295,0.53775 -12.92947,0.0179 2.79647,12.38982 -0.76869,10.00834 -2.00271,13.04002 -5.92084,2.76383 -12.22604,-0.0913 -18.30732,-4.18722 0.82581,8.63536 -0.35804,13.32746 -2.79744,15.55601 -6.84469,0.94216 -10.84224,-0.0116 -13.63517,-1.7675 -0.0841,5.73588 -1.19653,10.59212 -6.2294,12.09565 -4.28308,1.80915 -4.20174,1.24187 -6.08696,0.61661 l -10.24609,-10.9514 c 1.49305,4.80712 -3.81659,-1.53722 5.99091,16.89947 -1.65567,0.7757 -0.90434,3.47908 -6.42192,1.1619 l -14.2982,-13.89158 c 3.23043,7.44382 4.94329,15.7813 2.82639,23.51752 -4.42693,-6.31798 -8.82938,-12.91539 -13.57831,-15.55229 2.45847,5.83124 4.68026,14.36755 7.01738,21.58592 -1.35709,1.47942 -6.80917,-5.07632 -11.22611,-9.60079 0.2708,7.41677 0.19788,14.59511 -4.4973,18.5675 -3.15123,-0.52596 -2.87632,-3.92664 -2.82265,-7.1418 -1.26011,4.41448 -3.27192,9.54893 -6.53941,12.35574 -1.42671,-17.87766 -8.3005,-33.18967 -13.17598,-49.70429 3.80777,17.95748 9.38002,36.52377 4.6834,51.54691 l -3.69213,-3.77045 c 3.30801,13.78127 -3.17826,11.00275 -7.66567,8.80983 -6.27744,5.23417 -11.57696,6.2758 -16.63934,6.301 l -2.89399,-12.89385 c -1.31145,10.61065 -4.47118,16.07995 -9.47952,16.40788 -1.64702,6.17214 -3.40197,7.73201 -5.2102,7.01366 -2.90833,-0.67217 -2.52806,-6.7121 -3.09354,-10.61303 -5.91547,11.75762 -8.22463,9.53281 -12.08116,13.30742 -1.82219,2.04907 -3.43487,6.78292 -5.58086,4.68291 l -4.12344,-8.69209 c -3.46069,6.24999 -6.84638,5.34671 -10.20317,1.69293 3.73264,-6.2013 9.98963,-17.36466 12.4733,-24.99586 3.28487,-10.09303 5.31436,-16.84063 5.38079,-28.02672 z"
       id="path4392"
       inkscape:connector-curvature="0"
       sodipodi:nodetypes="cccccccccccccccccccccccccccccccccccccccscc" />
    <path
       style="fill:#f4f2b5;fill-opacity:1;fill-rule:evenodd;stroke:none;stroke-width:1.60621107;stroke-linecap:butt;stroke-linejoin:miter;stroke-miterlimit:4;stroke-dasharray:none;stroke-opacity:1"
       d="m 358.42041,535.86987 c -13.51941,-1.99568 -26.73486,-7.46629 -39.72241,-15.54133 -10.48725,14.34412 -19.9516,29.4592 -35.93343,39.66204 l 6.54319,4.01992 6.68212,-0.85182 c -0.21432,3.98407 -3.07153,9.99666 6.00869,6.84602 l 7.32716,-1.65727 2.41279,8.54242 7.88319,1.83885 c -1.81928,3.46386 -0.40526,4.21602 1.00148,4.97152 3.19412,2.73393 5.36588,2.08189 7.38781,0.93347 0.91788,3.89686 6.20512,4.12745 12.01006,3.92364 4.85414,-7.43086 10.76796,-17.60463 14.09472,-27.36882 2.62511,-7.70487 3.01678,-14.23359 4.30463,-25.31864 z"
       id="path4417"
       inkscape:connector-curvature="0"
       sodipodi:nodetypes="ccccccccccccsc" />
    <path
       sodipodi:nodetypes="ccccccccccccsc"
       inkscape:connector-curvature="0"
       id="path10940"
       d="m 358.42041,535.86987 c -13.51941,-1.99568 -26.73486,-7.46629 -39.72241,-15.54133 -10.48725,14.34412 -19.9516,29.4592 -35.93343,39.66204 l 6.54319,4.01992 6.68212,-0.85182 c -0.21432,3.98407 -3.07153,9.99666 6.00869,6.84602 l 7.32716,-1.65727 2.41279,8.54242 7.88319,1.83885 c -1.81928,3.46386 -0.40526,4.21602 1.00148,4.97152 3.19412,2.73393 5.36588,2.08189 7.38781,0.93347 0.91788,3.89686 6.20512,4.12745 12.01006,3.92364 4.85414,-7.43086 10.76796,-17.60463 14.09472,-27.36882 2.62511,-7.70487 3.01678,-14.23359 4.30463,-25.31864 z"
       style="fill:url(#linearGradient10948);fill-opacity:1;fill-rule:evenodd;stroke:none;stroke-width:1.60621107;stroke-linecap:butt;stroke-linejoin:miter;stroke-miterlimit:4;stroke-dasharray:none;stroke-opacity:1" />
    <path
       sodipodi:nodetypes="cccccccccccccccccccccccccccccccccccccccscc"
       inkscape:connector-curvature="0"
       id="path10906"
       d="m 527.53634,435.17608 c 15.52388,14.844 34.47508,22.90347 53.63569,30.54839 l -12.57305,5.79486 -1.3684,9.0735 -6.79265,-1.16886 -7.14184,2.8226 0.69144,5.2317 -8.43194,4.43347 c -4.23478,2.43209 -8.95295,0.53775 -12.92947,0.0179 2.79647,12.38982 -0.76869,10.00834 -2.00271,13.04002 -5.92084,2.76383 -12.22604,-0.0913 -18.30732,-4.18722 0.82581,8.63536 -0.35804,13.32746 -2.79744,15.55601 -6.84469,0.94216 -10.84224,-0.0116 -13.63517,-1.7675 -0.0841,5.73588 -1.19653,10.59212 -6.2294,12.09565 -4.28308,1.80915 -4.20174,1.24187 -6.08696,0.61661 l -10.24609,-10.9514 c 1.49305,4.80712 -3.81659,-1.53722 5.99091,16.89947 -1.65567,0.7757 -0.90434,3.47908 -6.42192,1.1619 l -14.2982,-13.89158 c 3.23043,7.44382 4.94329,15.7813 2.82639,23.51752 -4.42693,-6.31798 -8.82938,-12.91539 -13.57831,-15.55229 2.45847,5.83124 4.68026,14.36755 7.01738,21.58592 -1.35709,1.47942 -6.80917,-5.07632 -11.22611,-9.60079 0.2708,7.41677 0.19788,14.59511 -4.4973,18.5675 -3.15123,-0.52596 -2.87632,-3.92664 -2.82265,-7.1418 -1.26011,4.41448 -3.27192,9.54893 -6.53941,12.35574 -1.42671,-17.87766 -8.3005,-33.18967 -13.17598,-49.70429 3.80777,17.95748 9.38002,36.52377 4.6834,51.54691 l -3.69213,-3.77045 c 3.30801,13.78127 -3.17826,11.00275 -7.66567,8.80983 -6.27744,5.23417 -11.57696,6.2758 -16.63934,6.301 l -2.89399,-12.89385 c -1.31145,10.61065 -4.47118,16.07995 -9.47952,16.40788 -1.64702,6.17214 -3.40197,7.73201 -5.2102,7.01366 -2.90833,-0.67217 -2.52806,-6.7121 -3.09354,-10.61303 -5.91547,11.75762 -8.22463,9.53281 -12.08116,13.30742 -1.82219,2.04907 -3.43487,6.78292 -5.58086,4.68291 l -4.12344,-8.69209 c -3.46069,6.24999 -6.84638,5.34671 -10.20317,1.69293 3.73264,-6.2013 9.98963,-17.36466 12.4733,-24.99586 3.28487,-10.09303 5.31436,-16.84063 5.38079,-28.02672 z"
       style="fill:url(#linearGradient10938);fill-opacity:1;fill-rule:evenodd;stroke:none;stroke-width:1;stroke-linecap:butt;stroke-linejoin:miter;stroke-miterlimit:4;stroke-dasharray:none;stroke-opacity:1" />
    <path
       style="color:#000000;font-style:normal;font-variant:normal;font-weight:normal;font-stretch:normal;font-size:medium;line-height:normal;font-family:sans-serif;text-indent:0;text-align:start;text-decoration:none;text-decoration-line:none;text-decoration-style:solid;text-decoration-color:#000000;letter-spacing:normal;word-spacing:normal;text-transform:none;direction:ltr;block-progression:tb;writing-mode:lr-tb;baseline-shift:baseline;text-anchor:start;white-space:normal;clip-rule:nonzero;display:inline;overflow:visible;visibility:visible;opacity:0.91000001;isolation:auto;mix-blend-mode:normal;color-interpolation:sRGB;color-interpolation-filters:linearRGB;solid-color:#000000;solid-opacity:1;fill:#000000;fill-opacity:1;fill-rule:evenodd;stroke:none;stroke-width:1.0629921;stroke-linecap:butt;stroke-linejoin:round;stroke-miterlimit:4;stroke-dasharray:none;stroke-dashoffset:0;stroke-opacity:1;color-rendering:auto;image-rendering:auto;shape-rendering:auto;text-rendering:auto;enable-background:accumulate"
       d="m 524.72266,431.94494 c 0.50568,0.0625 0.97878,0.28312 1.35024,0.63296 16.95746,16.08992 37.11137,25.09143 54.47404,30.40769 2.04667,0.62637 2.31028,3.42722 0.41686,4.42993 l -10.73561,5.69979 -1.42036,8.05025 c -0.26461,1.50064 -1.8337,2.38084 -3.24446,1.81966 -1.35787,-0.53789 -2.71903,-1.16839 -4.08236,-1.83946 -0.55878,0.91681 -1.2976,1.79596 -2.41135,2.30091 -0.90914,0.41222 -2.24987,0.25821 -3.39647,0.32416 0.19778,1.28141 0.75169,2.52144 0.22936,3.8455 -0.92226,2.33776 -3.32423,3.90009 -6.5595,4.54736 -0.34771,0.0683 -0.70614,0.0579 -1.04943,-0.0294 -1.84617,1.94358 -4.40422,2.96609 -7.04924,3.17316 -1.87185,0.14657 -3.87007,-0.56429 -5.8371,-0.98106 0.34834,1.05305 0.76858,1.85073 0.943,3.06474 0.39017,2.71623 -0.11217,6.00464 -2.55726,8.61643 -0.13426,0.14069 -0.28433,0.26452 -0.44773,0.36899 -0.67155,0.4363 -1.41455,0.61696 -2.16505,0.69814 -1.42253,1.41927 -3.50933,1.83045 -5.49577,1.68486 -2.34964,-0.17371 -4.92282,-0.97806 -7.60865,-2.25444 -1.25244,-0.59515 -2.49041,-1.63396 -3.75643,-2.43217 0.82527,4.93163 -0.73539,10.06477 -3.14421,14.11242 -0.55178,0.92534 -1.64901,1.36979 -2.68533,1.08751 l -0.009,-7.9e-4 c -4.02669,0.51842 -6.02994,0.66647 -7.95834,0.22683 -1.09171,-0.24886 -2.3932,-0.85444 -3.47397,-1.31575 -0.11065,1.73284 0.29629,3.41792 -0.4756,5.12404 -1.3862,3.06941 -6.58917,8.50503 -7.61068,5.34632 -0.88539,2.62007 -2.50375,2.1629 -3.35157,2.43701 -1.49023,-0.1918 -2.52449,-0.99024 -3.6923,-2.05382 -1.92215,-1.75056 -4.75941,-5.44754 -8.0237,-9.7374 2.2215,6.86767 4.15299,7.53155 7.6645,14.1707 0.64605,1.23703 -1.16635,2.65358 -2.44208,3.21234 -3.51404,1.53479 -6.29074,-0.26325 -9.67257,-2.4969 -1.90172,-1.25597 -6.29711,-7.57024 -8.17813,-9.51328 0.073,0.23798 2.89313,6.2904 2.96105,6.52827 1.59109,5.57834 1.74949,9.37559 -0.86702,14.22192 -0.85027,1.57841 -3.05943,1.70251 -4.07767,0.22897 -1.00477,-1.4537 -5.94347,-10.03023 -8.09821,-11.63119 2.31983,3.25841 5.94894,11.9887 6.127,14.45877 0.15047,1.26038 -0.59789,2.48062 -0.83122,3.3443 -0.86432,1.64276 -2.27783,0.98292 -3.55525,1.33083 -1.06133,-0.3049 -1.63286,-0.84279 -2.22885,-1.40208 -1.76781,-1.81706 -3.5035,-3.95494 -4.95337,-5.62564 -0.0381,2.38045 0.59059,5.00342 -0.084,7.02216 -1.3296,3.97903 -3.77401,7.27212 -7.40149,8.2104 -0.8634,0.22478 -1.77929,-0.0501 -2.37743,-0.71392 -0.33558,0.82948 -0.64869,1.76677 -1.01802,2.44055 -0.66366,1.21063 -1.34042,2.28125 -2.71629,2.95756 -0.68801,0.33843 -1.60956,0.48631 -2.439,0.29257 -1.70609,-0.0523 -1.93448,-1.70414 -2.67029,-2.41709 -0.49574,-2.66385 -2.81331,-22.75928 -4.3944,-25.76295 0.85116,3.16846 2.35358,22.49982 1.93653,24.55384 -0.56837,2.79842 -1.10276,8.75573 -4.23291,4.76629 0.25173,0.86745 0.0656,3.71201 -0.0707,4.40744 -1.03378,1.42856 -2.23571,2.48112 -3.71881,2.89656 -1.48301,0.41542 -2.98105,0.0258 -4.06899,-0.57761 -0.91412,-0.50725 -1.3558,-1.18431 -2.04038,-1.83826 -0.87486,1.80832 -2.02583,3.31764 -3.53947,4.18144 -1.56263,0.89177 -3.20895,1.31186 -4.85252,1.60799 -0.0496,0.25413 -0.0725,0.51722 -0.12924,0.76977 -0.14792,0.67653 -0.57867,1.25656 -1.18249,1.59179 -5.41806,3.00263 -10.07823,1.38624 -10.39865,-10.52821 -0.26236,4.94912 -0.92569,8.33902 -2.23055,9.68068 -1.49837,1.54081 -3.57349,2.6615 -6.16701,3.29475 -0.38841,1.88065 -0.826,3.71682 -1.36125,5.45488 -0.13512,0.44186 -0.39292,0.83483 -0.7445,1.13307 -0.74145,0.6258 -1.52718,1.12362 -2.52833,1.31429 -1.00115,0.19044 -2.18756,-0.10402 -2.94738,-0.66649 -1.5196,-1.12393 -1.86815,-2.53629 -2.27476,-3.90905 -0.37018,-1.25017 -0.11996,-4.04784 -0.42174,-5.25079 -1.24054,1.63787 -2.53999,5.77371 -4.15226,6.90977 -1.35795,0.95677 -2.81057,1.6984 -4.29731,2.2335 -0.66702,2.12443 -2.10461,3.46666 -3.24141,4.91752 -1.60372,0.72468 -3.34547,3.02919 -4.83761,2.65025 -1.49214,-0.37901 -2.42457,-3.45579 -3.06974,-4.52247 -0.54206,-0.89639 -0.58837,-1.70431 -0.85865,-2.6136 -0.16891,0.11535 -0.34861,0.16698 -0.51906,0.27401 -0.30443,0.53066 -0.58078,1.09076 -0.90887,1.598 -0.25027,0.38491 -0.60539,0.68925 -1.02276,0.87798 -1.6037,0.72463 -3.17104,1.03608 -4.6632,0.65704 -1.49214,-0.379 -2.59896,-1.46267 -3.24407,-2.52935 -0.90758,0.23094 -1.53984,-0.39455 -1.96426,-0.50311 -0.14829,-0.063 -0.94832,-0.77222 -1.08109,-0.86384 -0.95742,0.38971 -2.02797,0.42797 -2.94511,0.62148 -2.90614,-0.009 -5.48033,-1.129 -7.84985,-2.12461 -0.79303,-0.33467 -1.34605,-1.07098 -1.44903,-1.92859 -2.59503,-0.18018 -4.9356,-1.16019 -7.09463,-2.06741 -1.37501,-0.57762 -1.89585,-2.26224 -1.08871,-3.52125 -2.68421,-0.13564 -5.09371,-1.15373 -7.31396,-2.08665 -1.39686,-0.59312 -1.89942,-2.32388 -1.03938,-3.57909 -0.15607,-0.23934 -0.37228,-0.46758 -0.48615,-0.70815 -0.44667,-0.9438 -0.40242,-1.7488 -0.57905,-2.67788 -1.75923,0.95752 -3.57544,1.51153 -5.30543,1.32869 -0.48783,-0.0518 -0.94351,-0.17584 -1.4074,-0.28286 l -0.0575,0.0482 c -0.36575,0.2797 -0.80414,0.44767 -1.26232,0.48425 -1.75295,0.13877 -3.33311,-0.10003 -4.60995,-0.96247 -1.27682,-0.86252 -1.94846,-2.26215 -2.19686,-3.48505 -0.20829,-1.02604 0.0208,-1.79886 0.0717,-2.74521 -1.93633,0.50605 -3.82865,0.60428 -5.46415,0.0101 -2.73217,-0.99258 -4.77754,-2.92621 -6.67272,-4.66663 -1.15775,-1.06539 -0.99788,-2.94278 0.32309,-3.79712 15.04927,-9.71062 24.43001,-22.49906 36.61754,-42.95882 0.31764,-0.53082 0.82622,-0.91861 1.42077,-1.08278 11.97467,-5.10618 39.20497,3.85453 41.54028,16.46878 28.00012,-19.55066 59.56802,-36.59208 86.66819,-52.32853 l -0.0232,-0.0475 17.32448,-10.58186 1.00928,0.48782 c 0.0398,-0.0375 0.0813,-0.0712 0.12429,-0.10471 l 8.29353,-6.17969 c 0.45543,-0.33737 1.01448,-0.50215 1.57884,-0.46547 l 0.0361,0.004 10.30517,-5.93267 c 0.20308,-0.48519 0.55782,-0.89063 1.01151,-1.15408 l 9.86173,-5.71408 7.9e-4,-0.009 c 0.16638,-0.1802 0.35822,-0.33406 0.5703,-0.45603 l 16.26152,-9.54762 c 0.10936,-0.0641 0.22343,-0.1197 0.34165,-0.16533 0.15992,-0.20533 0.35114,-0.38336 0.56773,-0.52723 l 8.22341,-5.37817 c 0.47564,-0.30831 1.04425,-0.43767 1.60546,-0.36545 z m 1.44217,4.94878 -7.88747,5.18641 c 4.71791,4.89155 11.90285,9.40263 17.41527,14.56082 5.67824,4.58035 19.43935,10.39358 25.46329,13.25691 1.04472,-1.20177 -14.28833,-9.3986 -18.70733,-13.30977 -1.99712,-1.39957 -3.48235,-4.20577 -1.05256,-4.02714 0.45577,0.0353 1.25808,0.4741 1.25808,0.4741 7.68252,5.58506 13.74772,10.46871 15.88522,11.7175 2.13755,1.2488 2.83906,3.05803 8.96786,5.09482 l 2.96479,-1.02279 7.15035,-3.23967 c -16.20052,-5.44651 -35.65447,-14.19608 -51.45751,-28.69109 z m -11.24176,6.52222 -13.37393,8.02471 c 4.23342,4.27584 8.59299,7.86606 11.72242,11.71496 10.8689,10.32128 17.12645,18.93196 34.75581,25.05243 1.4025,-0.42211 3.23616,-1.66653 3.39965,-2.08101 0.14385,-0.36465 0.0872,-1.46448 -0.13871,-2.45584 -8.97524,-1.57445 -14.51225,-6.74033 -24.618,-16.46284 -1.69287,-1.57617 -9.39514,-7.77807 -6.97488,-8.94933 1.83965,-0.11345 8.74193,6.99945 9.12628,7.3826 10.46557,10.06866 16.07074,12.41037 24.41754,13.51393 0.17398,0.0139 0.34614,0.0485 0.51304,0.0981 1.88417,0.16029 2.97792,-0.0261 3.34978,-0.19514 0.15399,-0.0698 0.21169,-0.11026 0.2704,-0.16246 -9.72728,-5.63309 -19.36761,-14.01164 -28.08838,-22.49874 -4.55701,-3.84603 -9.23734,-8.13171 -14.36123,-12.98119 z m -15.44197,9.47445 -5.63385,2.96259 -1.03093,0.9584 c 6.2944,6.60846 14.03372,14.25149 20.81252,20.47899 6.59142,6.05537 12.55058,10.68697 17.9146,12.61607 0.15952,0.0231 2.26367,0.65972 3.97511,0.84913 2.93155,1.07451 3.46819,0.96156 5.6971,0.78693 0.75628,-0.0594 3.01133,-1.27335 3.58678,-1.46113 -10.94687,-4.44942 -21.8411,-12.38604 -26.5539,-16.26827 -2.34743,-2.53687 -4.54963,-5.18915 -6.78855,-7.8897 -4.60934,-4.38387 -8.02857,-8.94101 -11.97888,-13.03305 z m -11.18139,6.75535 -9.35487,5.04383 c 0.82499,0.8867 1.82988,2.84205 2.64455,3.7562 8.83988,9.49 16.93478,18.74428 21.90604,28.79547 2.16113,4.25245 4.26125,9.97283 5.89983,14.54387 1.62184,-2.59053 1.51286,-5.54632 1.28152,-7.4927 -0.16051,-1.34834 -1.16962,-4.21979 -2.55015,-6.03361 -0.69023,-0.90684 -1.87499,-2.79875 -2.44762,-3.61469 -1.85086,-2.63721 -2.83832,-4.34382 -3.70975,-6.12386 -1.29632,-2.64781 -3.62719,-5.15 -2.47045,-6.22795 0.85725,-0.53624 4.90841,5.27871 6.42818,7.70635 2.76888,4.42305 7.49111,9.84246 11.69885,12.13682 0.47647,0.25965 2.03439,-0.1997 2.50105,0.0227 0.18696,0.0892 4.90621,2.90892 5.77064,1.75895 0.37687,-1.85781 -4.03455,-3.75535 -6.62188,-5.94058 -3.32545,-3.27186 -5.27613,-4.88568 -9.65765,-9.72126 -6.1836,-6.82432 -11.40666,-15.849 -17.59439,-24.28936 -1.32603,-1.65609 -2.52089,-2.97591 -3.72393,-4.31986 z m 75.62378,12.37657 c -0.0807,3.61084 -15.20945,-3.54953 -15.52193,-3.4398 -0.37323,0.60436 12.05571,7.75675 11.91555,8.59577 0.56142,0.2862 5.06366,1.42431 5.62122,1.68551 l -0.46806,-6.33338 c -0.59322,-0.19479 -1.03337,-0.33932 -1.54679,-0.50801 z m -88.4416,-5.20807 -4.51157,3.36853 c 0.82202,0.89152 1.57615,1.82276 2.35968,2.736 9.35927,8.3775 12.81361,20.72858 15.46529,30.62817 0.59578,2.22408 0.66471,5.80049 0.59835,8.09641 0.40154,3.68013 -0.0432,9.03123 -0.11132,13.23088 0.50267,-0.60159 2.6162,-1.60756 2.92965,-3.54637 0.95098,-2.10577 1.04512,-4.64798 0.7021,-5.60127 -0.68955,-1.92158 1.16992,-3.77878 3.08036,-3.07664 3.28331,1.20343 4.593,1.92999 5.59277,2.15793 0.49494,0.11293 2.19395,-0.11156 3.14261,-0.15097 -3.80234,-13.90545 -13.99431,-32.81963 -29.24802,-47.84258 z m -6.9667,4.51079 c 0.80169,1.28573 -5.34378,3.54475 -5.30146,3.62235 6.49643,12.10754 14.1373,19.15947 20.4551,23.5111 -2.57302,-6.61224 -5.80789,-17.05251 -10.23429,-22.36144 -1.82537,-1.81964 -2.65892,-3.50459 -4.91935,-4.77201 z m 25.73326,-10.04408 c 0.37095,3.31142 17.18265,24.58041 19.39588,27.50433 4.08836,5.40116 8.79992,7.38516 11.9615,10.36375 1.58084,1.48928 3.00099,2.50435 3.95099,2.93735 0.69374,0.31597 0.73689,0.22055 0.8681,0.18243 1.06496,-1.3346 1.41497,-2.55771 1.1801,-4.19256 -0.21092,-1.4693 -0.83977,-3.11674 -1.45686,-4.7695 -6.38267,-2.44442 -9.7046,-6.82895 -16.29076,-12.87939 -0.96843,-0.88974 -18.1182,-19.32223 -19.60894,-19.14647 z m -33.22424,13.86302 -7.41504,4.52575 c 0.22845,0.624 -0.86608,1.81534 -0.632,2.42828 l 8.44898,16.68092 c 0.6894,1.36104 6.64524,15.1331 7.47854,16.38771 0.61751,0.9297 2.97147,8.90364 3.41409,9.4211 0.26627,0.31134 -0.8427,-7.32197 -0.62381,-9.14983 -0.25608,-3.32271 -2.72277,-8.89507 -1.59319,-10.37418 2.08804,1.51931 3.40984,8.55839 5.53307,11.12974 4.73462,5.734 6.38569,7.72401 8.44281,9.69752 3.66202,0.95239 2.39978,-10.95968 2.43858,-13.20796 -4.94956,-1.76731 -10.39413,-4.12377 -13.19039,-7.26902 -3.10047,-3.51687 -4.1655,-5.26121 -8.08866,-9.79886 -1.43235,-1.6568 -5.64198,-7.39247 -4.22265,-8.35071 0.62273,0.0362 2.98534,2.89396 5.73118,6.15242 3.29838,3.9141 7.02567,7.90805 10.14557,10.66811 2.00971,1.77789 3.78873,2.31322 8.46576,4.0474 -0.32404,-2.16991 -0.7368,-4.23118 -1.23388,-6.20558 -0.66915,0.14212 -1.36683,-0.009 -1.9173,-0.4162 -8.73219,-6.43986 -13.37674,-11.78972 -21.05479,-26.09932 -0.0479,-0.087 -0.0901,-0.17625 -0.12715,-0.26822 z m -11.27944,7.26751 -3.86433,2.23589 0.009,0.01 c 6.88713,9.62293 15.09953,27.91048 21.66337,35.34882 -5.59683,-12.434 -12.45255,-27.52672 -17.80728,-37.59454 z m -7.99917,4.63446 -11.50777,6.8643 c 2.08111,6.13559 5.65829,11.03272 8.77192,16.22165 1.66845,2.58184 4.81183,7.73229 6.50396,10.33013 5.38871,7.66177 9.72643,11.92681 14.64915,18.48488 0.31618,-2.50623 0.21638,-5.2143 -0.6622,-8.29457 -1.39459,-4.88933 -4.12052,-10.23532 -7.19529,-15.26556 -3.07465,-5.03017 -6.48211,-9.74998 -9.21203,-13.53368 -2.46942,-4.36728 -1.32828,-5.35755 1.91745,-2.69422 7.40338,10.56854 11.57571,14.08363 18.07911,22.09687 2.47478,3.04943 6.98235,9.08073 8.33825,7.09793 -9.00148,-10.53789 -18.8228,-26.06923 -29.42754,-40.88658 -0.0991,-0.13152 -0.18408,-0.27275 -0.25432,-0.42177 z m -20.92849,12.37425 c 1.95606,4.51677 4.76091,11.43878 6.51535,16.60045 4.7837,14.80651 9.99891,27.44958 10.94468,40.36273 0.55311,-0.7823 2.44665,-3.58299 2.83987,-4.75968 0.99857,-2.98843 1.22368,-6.97869 0.0862,-10.98941 -0.63184,-2.19574 1.85615,-3.95763 3.70364,-2.62271 2.69422,1.92882 4.80039,5.13041 6.70799,7.59867 -4.76057,-13.42331 -10.92328,-24.98223 -16.76273,-36.11188 -2.27648,-3.82279 -4.90099,-10.32654 -6.62386,-14.30066 -2.74681,0.87417 -5.01771,2.66474 -7.41121,4.22249 z m -19.73124,12.01799 c 1.52193,4.75432 3.99228,10.32386 6.6065,16.2347 1.83022,3.84681 3.69938,7.70709 5.41508,11.66602 3.04409,7.02416 5.93028,15.88457 7.17233,22.85178 1.40287,-4.80494 0.62483,-9.49267 0.60588,-14.38827 -0.0541,-14.09368 -2.07635,-18.10305 -4.361,-28.60699 -0.27423,-1.26034 -2.98325,-7.7765 -1.15395,-8.26234 2.08238,-0.55306 4.21351,9.18455 4.22228,9.20861 5.67822,15.64651 8.3638,24.77318 11.33365,39.84679 0.79002,-1.62723 2.85328,-4.34087 3.76632,-7.85529 -2.45604,-12.97889 -7.39582,-27.08847 -11.82231,-39.60665 -1.58396,-3.6084 -2.18197,-8.15314 -3.93351,-11.8127 -5.10809,4.64414 -11.83131,7.37837 -17.85127,10.72434 z m -8.32537,4.62372 c 8.96417,17.72745 16.44463,34.36364 17.41665,49.79836 1.28096,3.93545 4.36729,5.2958 5.08704,5.01743 0.34509,-0.42834 0.56103,-2.87058 0.49802,-4.9903 -2.39561,-16.84062 -8.82281,-33.11987 -14.38027,-46.63784 -4.26354,-6.18374 -2.71864,-6.23619 -8.62111,-3.18762 z m -12.00409,7.06214 c 0.25166,1.98661 0.48818,4.24555 0.74172,6.37547 2.52851,15.91824 3.98921,29.65687 1.9253,42.76289 -0.13105,1.65393 -0.36645,3.22629 -0.57255,4.82265 2.67551,-0.7277 3.08947,-3.14637 3.82841,-5.15912 0.67431,-3.68175 1.38965,-7.53497 1.9845,-11.73924 1.80982,-12.79155 -1.26602,-18.89722 -3.53968,-26.74978 -0.51738,-1.67375 -1.65501,-5.55344 0.2009,-6.75368 0.95764,0.12473 1.65013,6.82831 1.90647,7.76286 4.5594,15.58271 4.30636,18.14466 5.08352,26.11742 0.54806,5.62252 2.25514,9.98458 4.05986,15.33466 5.71862,0.23093 1.70927,-19.69302 0.0244,-28.27264 -2.07702,-8.0712 -4.20497,-16.3332 -6.26522,-24.04495 -4.12677,-2.83896 -6.24342,-1.62267 -9.3782,-0.45645 z m -58.51617,-5.02439 c -6.41792,14.91354 -12.83549,35.96093 -24.11657,48.91853 -0.88987,1.24463 2.04206,2.74239 3.47748,1.33353 6.00568,-5.5084 10.72772,-12.97556 16.06811,-22.4607 1.10331,-1.95957 5.89317,-12.46767 8.82095,-18.57803 1.32191,-2.75883 -1.77397,-6.80261 -4.24997,-9.21333 z m 149.64293,13.49977 c -1.29883,1.87716 0.64195,0.86628 0.47538,0.94394 0.21479,0.005 4.21233,0.74302 4.44986,0.81067 -0.0606,-0.10904 -0.49112,-4.27547 -2.14118,-5.81449 -0.83606,1.20116 -2.25408,2.4924 -2.78407,4.05997 z m -138.30546,-7.17959 c -0.80515,4.04858 -1.4245,6.11599 -2.30278,9.75746 -0.53309,3.02446 -1.23255,7.69327 -1.84905,10.71942 -2.42624,11.91017 -9.09079,21.19823 -15.2799,29.13169 0.11173,0.73057 4.5049,2.81335 4.59933,2.81479 1.56292,0.004 1.39349,-0.0573 2.96969,-2.36304 0.14058,-0.20248 2.6225,-4.86627 3.6253,-6.78682 6.55626,-12.55703 9.58901,-19.8673 13.36253,-39.06529 0.11832,-0.60354 -0.70525,-1.67127 -0.20615,-2.02823 l 0.39548,-0.27619 c 0.9504,-7.7737 1.00787,-6.39168 -5.31436,-1.90374 z m 60.16164,2.07709 c 2.10732,6.7481 4.01486,13.33163 5.34592,19.63032 1.89037,9.05895 4.04432,18.67923 3.61658,26.76596 0.71939,-0.13227 1.40235,-0.28092 1.84102,-0.53122 1.27809,-0.72942 2.05353,-1.6168 2.33275,-4.02965 -0.85548,-0.35424 -0.28879,-2.79323 -0.3362,-3.72125 -0.85261,-16.38823 -5.90448,-27.40461 -12.80007,-38.11416 z m -14.93283,-1.20088 -6.16761,2.90537 c -0.30654,2.22955 -0.81417,4.55744 -0.79524,7.06646 0.0771,10.17803 -0.80835,19.63761 -2.32656,28.61582 -1.12263,6.6387 -5.07145,17.76172 -8.16685,23.95043 4.41658,-0.94768 7.94763,-6.96013 8.66334,-9.08862 0.64979,-1.93272 1.03924,-2.27933 3.14787,-4.32423 1.47905,2.43122 1.16989,9.88235 3.32399,9.84711 1.57094,-0.0259 1.60152,-4.31219 1.8887,-5.18613 0.75271,-2.29034 1.86154,-11.99958 1.98969,-13.29387 1.73189,-17.49662 0.35124,-24.74962 -1.55733,-40.49234 z m -39.00565,4.29182 c -0.49118,6.68565 -0.94455,13.06406 -0.65574,20.63639 0.0316,0.82389 0.53052,10.28737 0.44054,11.10421 5.00201,-4.62262 7.58466,-19.46117 9.08111,-27.07471 -6.24386,-5.22262 -2.86819,-8.84213 -8.86591,-4.66589 z m 16.56853,0.27019 -4.57173,3.24795 c -0.54933,7.1215 -0.97073,14.87673 -1.73693,22.57864 -0.34715,3.49983 -3.34565,15.54064 -3.89206,18.9197 4.54449,-3.45092 9.07136,-22.03299 10.50305,-30.34121 0.841,-4.87977 -0.76651,-10.12623 -0.30231,-14.40527 z m -38.16474,-5.6631 c -9.26831,14.43111 -19.86273,27.25911 -31.74691,35.60845 0.99193,0.7849 2.0657,1.81209 2.90875,2.11837 1.46921,0.53398 2.66988,0.57669 4.92836,-1.05994 1.49203,-1.0715 3.58003,-0.13318 3.77651,1.69725 8.13618,-9.8857 15.10589,-23.42253 20.13329,-38.36413 z m 48.85311,7.77863 -6.98143,3.92755 c -0.64439,3.24097 -0.16718,6.08754 -0.56232,9.11649 -0.62364,4.78765 -1.39775,11.94546 -1.88887,16.87248 -0.8744,8.77203 -1.88665,14.60217 -4.57877,21.92914 -0.078,-0.16427 -0.91149,3.17324 0.0967,4.48764 0.33461,1.20492 1.98248,3.94755 2.25628,4.89888 0.28905,0.31606 2.35413,-2.24676 2.95829,-3.51647 3.26418,-6.86005 7.38772,-22.9787 8.81752,-30.72594 1.89601,-10.27373 1.57268,-16.14502 2.25063,-24.83549 0.0943,-1.18104 -0.92028,-3.17055 -2.36834,-2.15431 z m -39.62936,-2.8449 c -2.18238,5.00207 -4.48588,11.00151 -6.90862,16.11643 -3.55104,7.49709 -7.43229,14.70504 -12.04136,20.52329 1.4329,-0.69313 3.12754,0.18034 3.4004,1.75306 0.1929,1.12901 0.34313,2.22987 0.50152,3.15928 7.60422,-9.41713 16.76678,-23.45714 17.61122,-39.03841 0.83266,-1.66991 -1.27231,-2.1255 -2.56316,-2.51365 z m 10,14.03378 c -2.20246,-0.99411 -7.05492,24.07583 -11.58969,30.80694 -3.83031,5.68543 -9.73383,8.20815 -1.69745,9.60813 2.14466,0.79206 4.57634,-4.06616 4.9561,-4.00518 10.61441,-6.88648 8.5383,-26.20773 8.33104,-36.40989 z m 7.78286,12.68363 c -2.70495,8.86857 -9.5646,21.61615 -15.55544,28.10884 1.0032,4.06277 6.96707,3.00373 7.98678,2.5327 3.74351,-1.72909 9.80031,-27.05528 9.94662,-28.42494 1.40706,-8.14434 -0.34386,-9.4542 -2.37796,-2.2166 z m 7.48976,12.20251 c -2.45737,6.03711 -5.38788,11.6159 -8.98953,16.9649 0.21877,0.82816 0.43252,1.58949 0.62472,2.25582 0.65513,0.22614 1.27516,0.40097 1.75943,0.40238 0.28015,0.002 0.53447,-0.0314 0.79232,-0.064 2.79704,-5.23288 4.61623,-12.03793 5.8131,-19.55941 z"
       id="path4153-2-20-6"
       inkscape:connector-curvature="0"
       sodipodi:nodetypes="ccccccccccscccccccccscccccccccscccccccccccccccccscccccccccccccccccccccccscccccccccccccccccccccccccccccccccccccccccccccccccccccccccccscccccccccccccccccccccccccccccccccccsssscsccccscccccccccccscccccccccccccccsccccccccccccccccsscccscccccccccccccccccccccccsccccccscccccscccccccccssssccccccccccccccccccsscccccccccssccccccccccccscccccccccccccsscscssscccccccccscccccccccccscccssccccccccccccccccccsccccccccc" />
    <g
       id="g4333"
       transform="matrix(-4.4918126,-0.39298267,-0.39455901,4.5098302,1119.5493,-363.91733)"
       style="fill:#825201;fill-opacity:1">
      <path
         sodipodi:nodetypes="csscsccc"
         inkscape:connector-curvature="0"
         id="path4151"
         d="m 114.98468,183.48331 c 1.80535,-1.63275 3.83832,-1.55885 7.58929,-1.875 3.09437,-0.26081 3.78627,0.0208 5.51325,1.23147 8.37921,5.87391 29.57532,20.61395 31.54031,22.16138 1.46355,1.35488 2.33462,3.85354 -0.71428,5.26786 -4.05919,1.88297 -6.24003,2.69836 -7.32143,2.41071 l -35.89285,-25.26785 c -1.34213,-0.89551 -1.62287,-2.50154 -0.71429,-3.92857 z"
         style="fill:#825201;fill-opacity:1;fill-rule:evenodd;stroke:#000000;stroke-width:0.44267327;stroke-linecap:butt;stroke-linejoin:miter;stroke-miterlimit:4;stroke-dasharray:none;stroke-opacity:1" />
      <path
         sodipodi:nodetypes="ccccc"
         inkscape:connector-curvature="0"
         id="path4147"
         d="m 116.14539,187.67974 34.46429,24.28571 c 3.60433,2.75667 5.36979,-2.05865 2.67857,-3.57143 l -34.46428,-24.46429 c -3.26311,-2.43513 -6.33894,1.03024 -2.67858,3.75001 z"
         style="fill:#825201;fill-opacity:1;fill-rule:evenodd;stroke:#000000;stroke-width:0.44267327;stroke-linecap:butt;stroke-linejoin:miter;stroke-miterlimit:4;stroke-dasharray:none;stroke-opacity:1" />
      <path
         sodipodi:nodetypes="ccccc"
         inkscape:connector-curvature="0"
         id="path4149"
         d="m 137.38008,192.19632 50,-70.71429 c 1.94101,-1.96517 4.53351,0.6386 3.03572,2.67857 l -50,70.17858 c -0.97672,1.12545 -4.09985,-0.9268 -3.03572,-2.14286 z"
         style="fill:#825201;fill-opacity:1;fill-rule:evenodd;stroke:#000000;stroke-width:0.44267327;stroke-linecap:butt;stroke-linejoin:miter;stroke-miterlimit:4;stroke-dasharray:none;stroke-opacity:1" />
    </g>
  </g>
</svg>
