<?xml version="1.0" encoding="UTF-8" standalone="no"?>
<!-- Created with Inkscape (http://www.inkscape.org/) -->

<svg
   xmlns:osb="http://www.openswatchbook.org/uri/2009/osb"
   xmlns:dc="http://purl.org/dc/elements/1.1/"
   xmlns:cc="http://creativecommons.org/ns#"
   xmlns:rdf="http://www.w3.org/1999/02/22-rdf-syntax-ns#"
   xmlns:svg="http://www.w3.org/2000/svg"
   xmlns="http://www.w3.org/2000/svg"
   xmlns:xlink="http://www.w3.org/1999/xlink"
   xmlns:sodipodi="http://sodipodi.sourceforge.net/DTD/sodipodi-0.dtd"
   xmlns:inkscape="http://www.inkscape.org/namespaces/inkscape"
   width="200mm"
   height="200mm"
   viewBox="0 0 708.66142 708.66141"
   id="svg2"
   version="1.1"
   inkscape:version="0.91 r13725"
   sodipodi:docname="logo.svg">
  <defs
     id="defs4">
    <linearGradient
       id="linearGradient11633"
       osb:paint="solid">
      <stop
         style="stop-color:#f79c00;stop-opacity:1;"
         offset="0"
         id="stop11635" />
    </linearGradient>
    <linearGradient
       inkscape:collect="always"
       id="linearGradient10958">
      <stop
         style="stop-color:#825201;stop-opacity:1;"
         offset="0"
         id="stop10960" />
      <stop
         style="stop-color:#f79c00;stop-opacity:0"
         offset="1"
         id="stop10962" />
    </linearGradient>
    <linearGradient
       inkscape:collect="always"
       id="linearGradient10932">
      <stop
         style="stop-color:#dfd927;stop-opacity:1;"
         offset="0"
         id="stop10934" />
      <stop
         style="stop-color:#b3ae12;stop-opacity:0"
         offset="1"
         id="stop10936" />
    </linearGradient>
    <linearGradient
       inkscape:collect="always"
       id="linearGradient10461">
      <stop
         style="stop-color:#19b8d0;stop-opacity:1;"
         offset="0"
         id="stop10463" />
      <stop
         style="stop-color:#19b8d0;stop-opacity:0;"
         offset="1"
         id="stop10465" />
    </linearGradient>
    <linearGradient
       id="linearGradient8713"
       osb:paint="solid">
      <stop
         style="stop-color:#81bdca;stop-opacity:1;"
         offset="0"
         id="stop8715" />
    </linearGradient>
    <radialGradient
       inkscape:collect="always"
       xlink:href="#linearGradient10461"
       id="radialGradient10467"
       cx="356.96765"
       cy="699.39453"
       fx="356.96765"
       fy="699.39453"
       r="349.83962"
       gradientUnits="userSpaceOnUse" />
    <filter
       style="color-interpolation-filters:sRGB;"
       inkscape:label="Drop Shadow"
       id="filter10629">
      <feFlood
         flood-opacity="0.498039"
         flood-color="rgb(0,0,0)"
         result="flood"
         id="feFlood10631" />
      <feComposite
         in="flood"
         in2="SourceGraphic"
         operator="in"
         result="composite1"
         id="feComposite10633" />
      <feGaussianBlur
         in="composite1"
         stdDeviation="3"
         result="blur"
         id="feGaussianBlur10635" />
      <feOffset
         dx="-1"
         dy="3"
         result="offset"
         id="feOffset10637" />
      <feComposite
         in="offset"
         in2="offset"
         operator="atop"
         result="composite2"
         id="feComposite10639" />
    </filter>
    <linearGradient
       inkscape:collect="always"
       xlink:href="#linearGradient10932"
       id="linearGradient10938"
       x1="430.11621"
       y1="462.51157"
       x2="447.17206"
       y2="491.51157"
       gradientUnits="userSpaceOnUse"
       gradientTransform="translate(21,11)" />
    <linearGradient
       inkscape:collect="always"
       xlink:href="#linearGradient10932"
       id="linearGradient10948"
       x1="311.26456"
       y1="516.96869"
       x2="302.92041"
       y2="545.96869"
       gradientUnits="userSpaceOnUse"
       gradientTransform="translate(21,11)" />
    <radialGradient
       inkscape:collect="always"
       xlink:href="#linearGradient10958"
       id="radialGradient11004"
       cx="152.6618"
       cy="166.79308"
       fx="152.6618"
       fy="166.79308"
       r="38.417648"
       gradientTransform="matrix(0.83727512,-0.54459734,0.48159642,0.73451183,-55.485074,127.4208)"
       gradientUnits="userSpaceOnUse" />
    <radialGradient
       inkscape:collect="always"
       xlink:href="#linearGradient10958"
       id="radialGradient11209"
       gradientUnits="userSpaceOnUse"
       gradientTransform="matrix(0.83727512,-0.54459734,0.48159642,0.73451183,-55.485074,127.4208)"
       cx="152.6618"
       cy="166.79308"
       fx="152.6618"
       fy="166.79308"
       r="38.417648" />
    <radialGradient
       inkscape:collect="always"
       xlink:href="#linearGradient10958"
       id="radialGradient11211"
       gradientUnits="userSpaceOnUse"
       gradientTransform="matrix(0.83727512,-0.54459734,0.48159642,0.73451183,-55.485074,127.4208)"
       cx="152.6618"
       cy="166.79308"
       fx="152.6618"
       fy="166.79308"
       r="38.417648" />
    <radialGradient
       inkscape:collect="always"
       xlink:href="#linearGradient10958"
       id="radialGradient11213"
       gradientUnits="userSpaceOnUse"
       gradientTransform="matrix(0.83727512,-0.54459734,0.48159642,0.73451183,-55.485074,127.4208)"
       cx="152.6618"
       cy="166.79308"
       fx="152.6618"
       fy="166.79308"
       r="38.417648" />
    <filter
       inkscape:collect="always"
       style="color-interpolation-filters:sRGB"
       id="filter11371"
       x="-0.15957878"
       width="1.3191576"
       y="-0.11971194"
       height="1.2394239">
      <feGaussianBlur
         inkscape:collect="always"
         stdDeviation="5.4054758"
         id="feGaussianBlur11373" />
    </filter>
    <pattern
       patternUnits="userSpaceOnUse"
       width="36"
       height="934"
       patternTransform="translate(-84.193871,-97.037028)"
       id="pattern11737">
      <rect
         y="0"
         x="0"
         height="934"
         width="36"
         id="rect11735"
         style="opacity:0.98999999;fill:#00262b;fill-opacity:1;fill-rule:nonzero;stroke:none;stroke-width:2;stroke-linecap:butt;stroke-linejoin:miter;stroke-miterlimit:4;stroke-dasharray:none;stroke-dashoffset:0;stroke-opacity:1" />
    </pattern>
  </defs>
  <sodipodi:namedview
     id="base"
     pagecolor="#ffffff"
     bordercolor="#666666"
     borderopacity="1.0"
     inkscape:pageopacity="0.0"
     inkscape:pageshadow="2"
     inkscape:zoom="1"
     inkscape:cx="561.54583"
     inkscape:cy="358.28704"
     inkscape:document-units="px"
     inkscape:current-layer="layer4"
     showgrid="false"
     inkscape:window-width="1920"
     inkscape:window-height="1150"
     inkscape:window-x="0"
     inkscape:window-y="25"
     inkscape:window-maximized="1"
     showguides="false"
     borderlayer="false" />
  <metadata
     id="metadata7">
    <rdf:RDF>
      <cc:Work
         rdf:about="">
        <dc:format>image/svg+xml</dc:format>
        <dc:type
           rdf:resource="http://purl.org/dc/dcmitype/StillImage" />
        <dc:title></dc:title>
        <cc:license
           rdf:resource="http://creativecommons.org/licenses/by-sa/3.0/" />
      </cc:Work>
      <cc:License
         rdf:about="http://creativecommons.org/licenses/by-sa/3.0/">
        <cc:permits
           rdf:resource="http://creativecommons.org/ns#Reproduction" />
        <cc:permits
           rdf:resource="http://creativecommons.org/ns#Distribution" />
        <cc:requires
           rdf:resource="http://creativecommons.org/ns#Notice" />
        <cc:requires
           rdf:resource="http://creativecommons.org/ns#Attribution" />
        <cc:permits
           rdf:resource="http://creativecommons.org/ns#DerivativeWorks" />
        <cc:requires
           rdf:resource="http://creativecommons.org/ns#ShareAlike" />
      </cc:License>
    </rdf:RDF>
  </metadata>
  <g
     inkscape:label="base"
     inkscape:groupmode="layer"
     id="layer1"
     transform="translate(0,-343.70079)"
     style="display:inline">
    <circle
       style="opacity:1;fill:#0094aa;fill-opacity:1;fill-rule:nonzero;stroke:#000000;stroke-width:4;stroke-linecap:butt;stroke-linejoin:miter;stroke-miterlimit:3.70000005;stroke-dasharray:none;stroke-dashoffset:0;stroke-opacity:1"
       id="path10448"
       cx="356.96765"
       cy="699.39453"
       r="342.68924" />
  </g>
  <g
     inkscape:groupmode="layer"
     id="layer3"
     inkscape:label="grade"
     style="display:inline;opacity:1">
    <circle
       r="342.68924"
       cy="699.39453"
       cx="356.96765"
       id="circle10450"
       style="display:inline;opacity:1;fill:url(#radialGradient10467);fill-opacity:1;fill-rule:nonzero;stroke:none;stroke-width:14.3007555;stroke-linecap:butt;stroke-linejoin:miter;stroke-miterlimit:3.70000005;stroke-dasharray:none;stroke-dashoffset:0;stroke-opacity:1"
       transform="translate(0,-343.70079)" />
  </g>
  <g
     inkscape:groupmode="layer"
     id="layer4"
     inkscape:label="stripes"
     style="display:inline">
    <path
       style="fill:#000000;fill-opacity:0.49779741;opacity:0.162"
       d="m 341.5,355.66142 0,-342.499999 5,0 5,0 0,342.499999 0,342.5 -5,0 -5,0 0,-342.5 z m 20,0 0,-342.609579 4.75,0.30479 4.75,0.30479 0,341.999999 0,342 -4.75,0.30479 -4.75,0.30479 0,-342.60958 z m -37.25,340.78375 -2.75,-0.41659 0,-340.30274 0,-340.302739 3.75,-0.61983 c 2.0625,-0.34091 4.3125,-0.62479 5,-0.63084 0.99758,-0.009 1.25,68.94979 1.25,341.488989 l 0,341.5 -2.25,-0.14983 c -1.2375,-0.0824 -3.4875,-0.3373 -5,-0.56642 z m 57.25,-340.78375 0,-341.499999 3.41821,0 c 1.88002,0 4.13002,0.27314 5,0.60699 1.4381,0.55185 1.58179,31.51915 1.58179,340.893009 0,309.37386 -0.14369,340.34116 -1.58179,340.89301 -0.86998,0.33385 -3.11998,0.60699 -5,0.60699 l -3.41821,0 0,-341.5 z M 308,694.44655 c -1.1,-0.19965 -3.01316,-0.57922 -4.25146,-0.84348 L 301.49707,693.12258 301.74854,355.392 302,17.661421 l 4.26422,-0.56912 c 2.34531,-0.31301 4.48281,-0.35051 4.75,-0.0833 0.80771,0.80771 0.54397,677.004689 -0.26422,677.417499 -0.4125,0.21069 -1.65,0.21973 -2.75,0.0201 z m 93.5,-338.65732 c 0,-271.041449 0.25243,-339.625589 1.25,-339.616799 0.6875,0.006 2.9375,0.28993 5,0.63084 l 3.75,0.61983 0,337.810149 c 0,185.79557 -0.38042,338.04525 -0.84538,338.33261 -0.46496,0.28736 -2.71496,0.82143 -5,1.18683 l -4.15462,0.66435 0,-339.62781 z m 19,-0.21571 0,-336.587899 4.25,0.70325 c 2.3375,0.38679 4.5875,0.9029 5,1.14692 0.4125,0.24401 0.75,150.920949 0.75,334.837639 l 0,334.39398 -3.75,1.04143 c -2.0625,0.57278 -4.3125,1.04394 -5,1.047 -0.99754,0.004 -1.25,-67.97569 -1.25,-336.58232 z M 285,690.28329 l -3,-0.6415 -0.25149,-333.4387 c -0.13831,-183.39128 0.0867,-333.776329 0.5,-334.188999 0.41332,-0.41266 2.66399,-1.05585 5.00149,-1.42929 l 4.25,-0.679 0,335.627809 c 0,319.02394 -0.0866,335.62196 -1.75,335.5095 -0.9625,-0.0651 -3.1,-0.407 -4.75,-0.75982 z m 156.04722,-2.90798 C 440.1993,686.52739 440.40167,24.335491 441.25,23.852021 c 0.4125,-0.23509 2.55,0.0903 4.75,0.72302 l 4,1.15046 0,329.857579 0,329.85759 -4.20278,1.24093 c -2.31153,0.68251 -4.44903,0.99468 -4.75,0.69371 z M 264.5,685.26666 l -2.5,-0.69541 0,-328.84454 0,-328.844539 4.5,-1.34519 c 2.475,-0.73986 4.6125,-1.35203 4.75,-1.36038 0.1375,-0.008 0.25,148.934819 0.25,330.984819 l 0,331 -2.25,-0.0997 c -1.2375,-0.0548 -3.375,-0.41261 -4.75,-0.79508 z m 196,-329.71365 0,-326.608409 2.4559,0.61639 c 1.35074,0.33902 3.60143,1.05193 5.00152,1.58424 l 2.54563,0.96785 L 470.25153,355.77688 470,679.44067 l -4.5,1.3452 c -2.475,0.73985 -4.6125,1.35202 -4.75,1.36037 -0.1375,0.008 -0.25,-146.9586 -0.25,-326.59323 z M 244.25,678.862 l -2.75,-1.08666 0,-322.21296 0,-322.212959 4.67814,-1.594 c 2.57298,-0.8767 4.82298,-1.594 5,-1.594 0.17702,0 0.32186,146.249999 0.32186,324.999999 l 0,325 -2.25,-0.10638 c -1.2375,-0.0585 -3.4875,-0.59538 -5,-1.19304 z M 480.5,355.66142 c 0,-255.35287 0.25164,-319.620239 1.25,-319.248309 0.6875,0.25611 2.9375,1.06966 5,1.80787 l 3.75,1.34222 0,316.098219 0,316.09822 -3.75,1.34222 c -2.0625,0.73821 -4.3125,1.55176 -5,1.80787 -0.99836,0.37193 -1.25,-63.89544 -1.25,-319.24831 z m -255.25,315.84152 -3.75,-1.55543 0,-314.28446 0,-314.284469 4.02024,-1.60858 c 2.21113,-0.88472 4.46113,-1.60858 5,-1.60858 0.63762,0 0.97976,110.871849 0.97976,317.499999 0,253.36082 -0.25252,317.48959 -1.25,317.44847 -0.6875,-0.0283 -2.9375,-0.75147 -5,-1.60695 z M 500.5,355.66142 c 0,-170.775 0.32246,-310.499999 0.71657,-310.499999 0.39411,0 2.64411,0.73614 5,1.63586 l 4.28343,1.63586 0,306.843809 0,306.84382 -3.96016,2.02033 c -2.17809,1.11117 -4.42809,2.02032 -5,2.02032 -0.71755,0 -1.03984,-96.23612 -1.03984,-310.5 z M 206.24838,662.5363 201.49676,660.12144 201.74838,355.39143 202,50.661421 l 4.5,-2.2688 4.5,-2.2688 0.25315,155.099749 c 0.13923,85.30486 0.13923,224.54102 0,309.41367 L 211,664.95116 206.24838,662.5363 Z M 520.5,355.66142 c 0,-209.54772 0.31837,-300.499999 1.05188,-300.499999 0.57854,0 2.82507,1.0125 4.9923,2.25 l 3.94042,2.25 0.008,296.001719 0.008,296.00171 -4.25,2.25106 c -2.3375,1.23809 -4.5875,2.24982 -5,2.24829 C 520.8375,656.1622 520.5,520.93642 520.5,355.66142 Z M 185.74832,651.59428 181.49664,649.04606 181.74832,355.38555 182,61.725041 l 4,-2.26536 c 2.2,-1.24595 4.3375,-2.27276 4.75,-2.28181 0.4125,-0.009 0.75,134.308549 0.75,298.483549 0,164.175 -0.3375,298.49574 -0.75,298.49054 -0.4125,-0.005 -2.66326,-1.15616 -5.00168,-2.55768 z M 540.5,355.66142 l 0,-289.730019 2.5,1.61501 c 1.375,0.88826 3.625,2.34176 5,3.23002 l 2.5,1.61501 0,283.269979 0,283.26998 -2.5,1.61501 c -1.375,0.88826 -3.625,2.34176 -5,3.23002 l -2.5,1.61501 0,-289.73002 z m -374.75,283.40062 -4.25,-3.0102 0,-280.39717 0,-280.397169 4.43018,-3.04804 c 2.43659,-1.67642 4.68659,-3.04804 5,-3.04804 0.3134,0 0.56982,128.924999 0.56982,286.499999 0,157.575 -0.3375,286.47994 -0.75,286.45541 -0.4125,-0.0245 -2.6625,-1.39918 -5,-3.05479 z M 560.5,355.66142 c 0,-151.525 0.29115,-275.499999 0.64701,-275.499999 0.35585,0 2.60585,1.60513 5,3.56695 l 4.35299,3.56695 0,268.312589 0,268.31259 -4.4183,3.62046 c -2.43006,1.99125 -4.68006,3.62046 -5,3.62046 -0.31993,0 -0.5817,-123.975 -0.5817,-275.5 z m -414.76548,268.72016 -4.26549,-3.72016 0.0155,-265.12954 0.0155,-265.129539 4.4183,-3.62046 c 2.43006,-1.99125 4.68006,-3.62046 5,-3.62046 0.31993,0 0.5817,122.624999 0.5817,272.499999 0,149.875 -0.3375,272.48657 -0.75,272.47016 -0.4125,-0.0164 -2.66947,-1.70391 -5.01548,-3.75 z M 580.5,355.66142 c 0,-142.725 0.35631,-259.499999 0.79179,-259.499999 0.43549,0 2.68549,1.92953 5,4.287849 l 4.20821,4.28785 0,250.9243 0,250.9243 -4.20821,4.28785 c -2.31451,2.35832 -4.56451,4.28785 -5,4.28785 -0.43548,0 -0.79179,-116.775 -0.79179,-259.5 z m -454.75,251.57312 -4.25,-3.84486 0,-247.95759 0,-247.9576 5,-4.21606 5,-4.216059 0,256.059519 c 0,140.83274 -0.3375,256.04107 -0.75,256.01852 -0.4125,-0.0226 -2.6625,-1.7712 -5,-3.88587 z M 600.5,355.66142 c 0,-144.77486 0.3642,-240.5 0.91501,-240.5 0.50326,0 2.75326,2.08836 5,4.64079 l 4.08499,4.64079 0,231.21842 0,231.21842 -4.08499,4.64079 c -2.24674,2.55243 -4.49674,4.64079 -5,4.64079 -0.55081,0 -0.91501,-95.72514 -0.91501,-240.5 z m -494.75,231.56392 -4.25,-4.9351 0,-226.62882 0,-226.62882 4.25,-4.9351 c 2.3375,-2.7143 4.5875,-4.93532 5,-4.93559 0.4125,-2.7e-4 0.75,106.42451 0.75,236.49951 0,130.075 -0.3375,236.49978 -0.75,236.49951 -0.4125,-2.7e-4 -2.6625,-2.22129 -5,-4.93559 z M 620.5,355.66142 c 0,-120.175 0.3375,-218.47488 0.75,-218.44419 0.4125,0.0307 2.6625,2.47945 5,5.44166 l 4.25,5.38585 0,207.61668 0,207.61668 -4.25,5.38585 c -2.3375,2.96221 -4.5875,5.41096 -5,5.44166 -0.4125,0.0307 -0.75,-98.26919 -0.75,-218.44419 z m -534.750002,207.83113 -4.25,-5.60857 0,-202.18068 0,-202.18067 4.0448,-5.4306 c 2.22464,-2.98684 4.47464,-5.58061 5,-5.76394 0.60499,-0.21113 0.9552,77.97349 0.9552,213.25 0,117.47083 -0.3375,213.56977 -0.75,213.55319 -0.4125,-0.0166 -2.6625,-2.55401 -5,-5.63873 z M 640.5,355.86142 c 0,-105.985 0.15898,-192.7 0.35328,-192.7 0.19431,0 2.44431,3.14461 5,6.98801 l 4.64672,6.98802 0,178.35695 0,178.35695 -4.10253,6.40503 c -2.2564,3.52277 -4.5064,6.83254 -5,7.35504 -0.53014,0.56117 -0.89747,-77.92149 -0.89747,-191.75 z m -574.250002,179.01453 -4.75,-7.78547 0,-171.6306 0,-171.63059 4.75,-7.58394 4.75,-7.58393 0.25514,93.82942 c 0.14033,51.60619 0.14033,135.75619 0,187 l -0.25514,93.17058 -4.75,-7.78547 z M 660.5508,354.91142 l 0.0508,-159.25 4.89841,9.5 4.89841,9.5 0.0508,140.76998 0.0508,140.76998 -4.51004,8.98002 c -2.48052,4.93901 -4.73052,8.98002 -5,8.98002 -0.26948,0 -0.4671,-71.6625 -0.43916,-159.25 z m -614.406902,142.24459 -4.6439,-10.00541 0.0438,-131.74459 0.0438,-131.74459 4.86832,-10 4.86831,-10 0.0879,151.75 c 0.0484,83.4625 -0.0723,151.75 -0.26819,151.75 -0.19585,0 -2.44585,-4.50244 -5,-10.00541 z M 680.53041,355.11142 c 0.0189,-70.64415 0.38224,-112.84824 0.96287,-111.85514 0.51286,0.87718 2.74917,7.8076 4.96959,15.40094 l 4.03713,13.80608 -0.0113,83.09906 -0.0113,83.09906 -4.03571,13.99705 c -2.21964,7.69838 -4.46453,14.42588 -4.98865,14.95 -0.60393,0.60393 -0.94181,-40.59836 -0.92254,-112.49705 z M 28.549618,449.32803 c -1.11929,-3.75837 -3.16335,-11.83157 -4.54235,-17.94046 l -2.50727,-11.10708 0.0119,-64.80953 0.0118,-64.80954 2.91928,-12.5 c 1.60561,-6.875 3.80534,-15.2 4.8883,-18.5 l 1.96901,-6 0.0999,101.25 c 0.0549,55.6875 -0.10609,101.25 -0.3578,101.25 -0.25171,0 -1.37344,-3.07503 -2.49273,-6.83339 z"
       id="path12606"
       inkscape:connector-curvature="0" />
  </g>
  <g
     inkscape:groupmode="layer"
     id="layer5"
     inkscape:label="shadow"
     style="display:inline;opacity:0.79500002">
    <g
       clip-path="none"
       style="opacity:0.72600002;filter:url(#filter11371)"
       mask="none"
       inkscape:label="Ebene 1"
       id="g10469"
       transform="matrix(-4.5158346,-0.39508433,-0.39508433,4.5158346,1103.0377,-359.86629)">
      <path
         style="fill:#ffffff;fill-rule:evenodd;stroke:#ff0000;stroke-width:0.35433072;stroke-linecap:butt;stroke-linejoin:miter;stroke-miterlimit:4;stroke-dasharray:none;stroke-opacity:1"
         d="m 115.28366,187.29282 c -3.69694,2.96366 -8.01663,4.37045 -12.37437,5.68211 l 2.65165,1.51522 0.12627,2.02031 1.51523,-0.12627 1.51523,0.75761 -0.25254,1.13643 1.76777,1.13642 c 0.88388,0.6159 1.95717,0.29031 2.84105,0.25253 -0.85277,2.66903 -0.0235,2.21422 0.1894,2.90419 1.24803,0.72122 2.68856,0.21501 4.10374,-0.5682 -0.34751,1.88184 -0.17756,2.93574 0.31568,3.47239 1.48608,0.33865 2.38292,0.20591 3.03046,-0.12627 -0.0918,1.26214 0.0593,2.35074 1.13642,2.77792 0.90647,0.47993 0.8995,0.3537 1.32582,0.25254 l 2.46225,-2.2097 c -0.42054,1.02771 0.86829,-0.26444 -1.64149,3.59866 0.34894,0.2023 0.13185,0.78195 1.38895,0.37881 l 3.40927,-2.77792 c -0.85304,1.57375 -1.38976,3.37307 -1.07329,5.11389 1.09434,-1.30333 2.18867,-2.66854 3.283,-3.15672 -0.65239,1.23421 -1.30478,3.06744 -1.95717,4.60882 0.26979,0.35121 1.59399,-0.98466 2.65165,-1.89404 -0.20211,1.62471 -0.3241,3.20363 0.63134,4.16688 0.70263,-0.055 0.7076,-0.80762 0.75762,-1.51522 0.19205,0.99436 0.53545,2.16139 1.19955,2.84104 0.65726,-3.90138 2.46225,-7.1342 3.85121,-10.66973 -1.18206,3.87314 -2.76359,7.84615 -2.0203,11.23795 l 0.88388,-0.75761 c -0.99194,2.96498 0.48691,2.47908 1.51523,2.08344 1.2789,1.27096 2.4235,1.60176 3.53553,1.70463 l 0.88389,-2.77792 c 0.0842,2.35702 0.67343,3.61971 1.76776,3.78807 0.24328,1.38806 0.59896,1.7646 1.01015,1.6415 0.65206,-0.0918 0.68462,-1.42645 0.88389,-2.27285 1.07393,2.6976 1.62417,2.25307 2.39911,3.15673 0.36105,0.48534 0.62444,1.55666 1.13642,1.13642 l 1.07329,-1.8309 c 0.64036,1.44004 1.40177,1.30663 2.20971,0.56821 -0.70106,-1.43457 -1.86147,-4.00814 -2.26056,-5.73293 -0.52783,-2.28121 -0.8441,-3.80309 -0.64363,-6.26263 z"
         id="path10471"
         inkscape:connector-curvature="0"
         sodipodi:nodetypes="cccccccccccccccccccccccccccccccccccccccscc" />
      <path
         style="fill:#ffffff;fill-rule:evenodd;stroke:#00ff00;stroke-width:0.35433072;stroke-linecap:butt;stroke-linejoin:miter;stroke-miterlimit:4;stroke-dasharray:none;stroke-opacity:1"
         d="m 150.51273,212.6729 c 3.00941,-0.17864 6.01883,-1.12678 9.02824,-2.65165 2.0289,3.35391 3.81818,6.85758 7.1342,9.40704 l -1.51523,0.75762 -1.45209,-0.31567 c -0.0295,0.87966 0.4828,2.25593 -1.4521,1.38896 l -1.57836,-0.50508 -0.69448,1.8309 -1.76777,0.25254 c 0.33321,0.7962 0.008,0.93431 -0.31567,1.07329 -0.75451,0.5394 -1.21924,0.35435 -1.6415,0.0631 -0.27664,0.83873 -1.443,0.78775 -2.71478,0.63135 -0.92388,-1.72634 -2.0279,-4.07584 -2.57126,-6.28559 -0.42876,-1.7437 -0.38931,-3.18599 -0.4592,-5.64681 z"
         id="path10473"
         inkscape:connector-curvature="0"
         sodipodi:nodetypes="ccccccccccccsc" />
      <path
         style="color:#000000;font-style:normal;font-variant:normal;font-weight:normal;font-stretch:normal;font-size:medium;line-height:normal;font-family:sans-serif;text-indent:0;text-align:start;text-decoration:none;text-decoration-line:none;text-decoration-style:solid;text-decoration-color:#000000;letter-spacing:normal;word-spacing:normal;text-transform:none;direction:ltr;block-progression:tb;writing-mode:lr-tb;baseline-shift:baseline;text-anchor:start;white-space:normal;clip-rule:nonzero;display:inline;overflow:visible;visibility:visible;opacity:1;isolation:auto;mix-blend-mode:normal;color-interpolation:sRGB;color-interpolation-filters:linearRGB;solid-color:#000000;solid-opacity:1;fill:#000000;fill-opacity:1;fill-rule:evenodd;stroke:none;stroke-width:1.0629921;stroke-linecap:butt;stroke-linejoin:round;stroke-miterlimit:4;stroke-dasharray:none;stroke-dashoffset:0;stroke-opacity:1;color-rendering:auto;image-rendering:auto;shape-rendering:auto;text-rendering:auto;enable-background:accumulate"
         d="m 115.96412,186.63684 c -0.11233,0.004 -0.22054,0.0434 -0.3089,0.11314 -4.03594,3.2099 -8.63805,4.80059 -12.5559,5.63507 -0.46182,0.0983 -0.5736,0.70875 -0.17678,0.96551 l 2.24968,1.459 0.15736,1.79644 c 0.0293,0.33487 0.3572,0.55847 0.67802,0.46227 0.30875,-0.0921 0.62,-0.20449 0.93251,-0.32575 0.10517,0.21222 0.25063,0.41963 0.48568,0.55201 0.19187,0.10807 0.48947,0.1 0.74018,0.13654 -0.0681,0.2778 -0.21367,0.53966 -0.12434,0.84068 0.15773,0.53148 0.65555,0.921 1.35409,1.12545 0.0751,0.0217 0.15407,0.0263 0.23119,0.0137 0.36835,0.46262 0.91085,0.73651 1.48814,0.83287 0.40854,0.0682 0.86134,-0.0496 1.30163,-0.10337 -0.0968,0.22472 -0.20449,0.39194 -0.26616,0.65538 -0.13797,0.58942 -0.0908,1.32174 0.39632,1.94272 0.0268,0.0335 0.0574,0.0636 0.0913,0.0897 0.13919,0.10879 0.299,0.16278 0.46237,0.19505 0.28533,0.33925 0.73602,0.46973 1.17536,0.47593 0.5197,0.007 1.10065,-0.12029 1.71543,-0.34915 0.28668,-0.10671 0.57871,-0.3112 0.87228,-0.46227 -0.27618,1.06791 -0.0319,2.22598 0.41964,3.16181 0.10347,0.21396 0.33605,0.33273 0.56922,0.29062 l 0.002,0 c 0.87494,0.19135 1.31233,0.2624 1.74457,0.20286 0.2447,-0.0337 0.54236,-0.14176 0.78874,-0.22236 -0.009,0.38294 -0.13083,0.74543 0.006,1.13521 0.24562,0.70119 1.28452,1.99576 1.56974,1.32124 0.1442,0.59281 0.50864,0.52346 0.68969,0.6 0.33118,-0.0135 0.57382,-0.16908 0.85091,-0.38036 0.45607,-0.34775 1.15067,-1.10565 1.95051,-1.98563 -0.62024,1.46653 -1.05747,1.57529 -1.95681,2.9668 -0.16576,0.25943 0.2053,0.60558 0.47491,0.7529 0.74274,0.40485 1.38752,0.0631 2.17366,-0.36275 0.44207,-0.23945 1.52941,-1.54257 1.98014,-1.93341 -0.0206,0.0509 -0.75674,1.32676 -0.77624,1.37773 -0.45691,1.19531 -0.56473,2.02675 -0.0829,3.14209 0.15651,0.36322 0.63961,0.43297 0.89171,0.12872 0.24876,-0.30015 1.49899,-2.08998 2.0033,-2.40038 -0.57246,0.67147 -1.53785,2.52027 -1.62447,3.05967 -0.0573,0.27409 0.0837,0.55664 0.11837,0.75093 0.15836,0.37763 0.48168,0.2598 0.75572,0.36082 0.2391,-0.0466 0.37504,-0.15382 0.51677,-0.26527 0.42343,-0.36533 0.84597,-0.80178 1.19672,-1.14106 -0.0374,0.52386 -0.22599,1.0882 -0.11655,1.54481 0.21569,0.9 0.68956,1.67069 1.4687,1.94663 0.18542,0.066 0.39198,0.0232 0.53619,-0.11118 0.0578,0.18874 0.10859,0.40074 0.1768,0.55591 0.12257,0.27881 0.25071,0.5271 0.54007,0.70218 0.14469,0.0876 0.34437,0.13782 0.53037,0.11119 0.37594,0.0213 0.45789,-0.33731 0.6333,-0.47984 0.16016,-0.57588 1.05584,-4.94751 1.46105,-5.5772 -0.24797,0.67994 -0.94982,4.89933 -0.89766,5.35874 0.0711,0.62591 0.074,1.94537 0.83859,1.12883 -0.072,0.18579 -0.0858,0.81449 -0.0692,0.96994 0.19972,0.33382 0.44362,0.58824 0.76156,0.70805 0.31792,0.11981 0.65462,0.063 0.90531,-0.0487 0.21064,-0.0939 0.32072,-0.2342 0.48374,-0.36475 0.15749,0.41422 0.38141,0.76804 0.69744,0.98697 0.32626,0.22602 0.67998,0.34999 1.03548,0.44667 0.006,0.0568 0.006,0.11506 0.0136,0.17165 0.0195,0.15152 0.10301,0.28727 0.22926,0.37255 1.13295,0.76403 2.18815,0.49841 2.48764,-2.11376 -0.0375,1.09267 0.0431,1.85039 0.30406,2.17032 0.29966,0.36742 0.73414,0.6536 1.29192,0.84263 0.0492,0.42076 0.11006,0.83269 0.19427,1.22494 0.0212,0.0997 0.0703,0.19102 0.14183,0.26332 0.15091,0.15178 0.31401,0.27629 0.53036,0.33744 0.21635,0.0611 0.48274,0.0192 0.66053,-0.0898 0.35556,-0.21778 0.45931,-0.52146 0.57506,-0.81532 0.10539,-0.26762 0.10419,-0.88725 0.19364,-1.14581 0.24113,0.38379 0.44718,1.31767 0.77965,1.59833 0.28003,0.23637 0.585,0.42728 0.90144,0.57346 0.10574,0.47969 0.39586,0.8023 0.61779,1.143 0.3385,0.19009 0.67696,0.73002 1.01216,0.67543 0.3352,-0.0546 0.59927,-0.71283 0.76156,-0.93484 0.13636,-0.18657 0.16207,-0.36323 0.23895,-0.55786 0.0349,0.0286 0.0734,0.0434 0.1088,0.0702 0.0567,0.12247 0.10666,0.25087 0.16901,0.36865 0.0476,0.0894 0.11979,0.16311 0.20788,0.21261 0.3385,0.19008 0.67695,0.28866 1.01216,0.23405 0.3352,-0.0546 0.59927,-0.27147 0.76155,-0.49348 0.19501,0.0682 0.34598,-0.0571 0.44134,-0.0728 0.0338,-0.011 0.22325,-0.15147 0.25419,-0.16905 0.20291,0.10405 0.43744,0.13304 0.63527,0.1932 0.63882,0.054 1.22607,-0.14274 1.76594,-0.31598 0.18071,-0.0583 0.3164,-0.20948 0.35552,-0.39597 0.57375,0.0103 1.10696,-0.16007 1.59887,-0.31793 0.31328,-0.1005 0.46013,-0.4607 0.30696,-0.7529 0.59249,0.0218 1.14158,-0.15561 1.64744,-0.31794 0.31838,-0.10349 0.4621,-0.47418 0.29723,-0.76656 0.0389,-0.0496 0.0908,-0.0956 0.12045,-0.14628 0.11631,-0.19882 0.12206,-0.37658 0.17874,-0.57736 0.3682,0.24425 0.75668,0.40092 1.14038,0.394 0.1082,-0.002 0.21073,-0.0205 0.31473,-0.0351 l 0.0117,0.0117 c 0.075,0.0685 0.16811,0.11384 0.2681,0.13069 0.38256,0.0642 0.73441,0.0421 1.03159,-0.12288 0.29718,-0.165 0.47169,-0.45967 0.54979,-0.72364 0.0655,-0.22148 0.03,-0.39572 0.037,-0.60467 0.4158,0.14844 0.82977,0.20641 1.20061,0.10728 0.61951,-0.1656 1.10618,-0.55121 1.55613,-0.89725 0.27491,-0.21187 0.27587,-0.62752 0.002,-0.84067 -3.12054,-2.42336 -4.93618,-5.41412 -7.22115,-10.1447 -0.0596,-0.12276 -0.16391,-0.21776 -0.29141,-0.26527 -2.53339,-1.35237 -8.68983,0.0933 -9.44557,2.82052 -5.77744,-4.83482 -12.38718,-9.1868 -18.04018,-13.1661 l 0.006,-0.01 -3.60379,-2.65857 -0.23118,0.0878 c -0.008,-0.009 -0.0165,-0.0172 -0.0253,-0.0254 l -1.70378,-1.51751 c -0.0936,-0.0829 -0.21329,-0.12986 -0.33802,-0.13265 l -0.008,0 -2.15061,-1.5019 c -0.0353,-0.11053 -0.10546,-0.20645 -0.2001,-0.27307 l -2.05736,-1.44534 0,-0.002 c -0.0331,-0.0428 -0.0723,-0.0803 -0.11656,-0.11118 l -3.39008,-2.41085 c -0.0228,-0.0162 -0.0468,-0.0306 -0.0719,-0.0429 -0.0312,-0.0482 -0.0698,-0.091 -0.11463,-0.12678 l -1.70378,-1.34002 c -0.0986,-0.0769 -0.22107,-0.11626 -0.34579,-0.11118 z m -0.41208,1.05982 1.63364,1.29142 c -1.13086,0.98426 -2.79656,1.83748 -4.10715,2.86506 -1.33592,0.89741 -4.47184,1.91035 -5.85072,2.42378 -0.20648,-0.28419 3.32072,-1.79073 4.36704,-2.56529 0.4658,-0.26917 0.84615,-0.85731 0.30874,-0.86477 -0.10084,-0.001 -0.28559,0.08 -0.28559,0.08 -1.7957,1.07967 -3.22249,2.03629 -3.71624,2.26963 -0.49376,0.23334 -0.68271,0.61745 -2.06874,0.94722 l -0.63188,-0.28177 -1.50908,-0.84943 c 3.66496,-0.88545 8.1084,-2.43423 11.85998,-5.31583 z m 2.3451,1.64947 2.78478,2.02065 c -1.01255,0.85827 -2.03964,1.56344 -2.80137,2.34911 -2.587,2.05924 -4.12772,3.83122 -8.11964,4.83731 -0.3001,-0.11973 -0.67914,-0.42846 -0.7071,-0.52269 -0.0246,-0.0829 0.009,-0.32351 0.0777,-0.53703 2.00268,-0.17344 3.31882,-1.20224 5.7266,-3.14457 0.40233,-0.31383 2.21423,-1.52868 1.70487,-1.83261 -0.4021,-0.0603 -2.05571,1.37013 -2.14754,1.44694 -2.49351,2.01148 -3.77033,2.41833 -5.62585,2.50037 -0.0385,-3e-4 -0.077,0.004 -0.11463,0.0117 -0.41715,-0.001 -0.65393,-0.063 -0.7324,-0.10729 -0.0325,-0.0183 -0.0444,-0.0283 -0.0563,-0.0409 2.24598,-1.05091 4.52564,-2.70684 6.6053,-4.4043 1.0754,-0.75759 2.18635,-1.60943 3.40562,-2.57664 z m 3.21138,2.37901 1.18114,0.75938 0.20813,0.23044 c -1.51032,1.33126 -3.35807,2.8621 -4.96752,4.10033 -1.56496,1.204 -2.9636,2.10727 -4.17949,2.42808 -0.0355,0.002 -0.51015,0.10146 -0.8899,0.11018 -0.6649,0.17977 -0.78066,0.14463 -1.26713,0.0634 -0.16506,-0.0276 -0.63729,-0.33773 -0.76014,-0.39006 2.49124,-0.76734 5.03796,-2.30204 6.14829,-3.06459 0.56465,-0.51237 1.0996,-1.0529 1.64355,-1.60333 1.09724,-0.87478 1.93627,-1.81052 2.88307,-2.63384 z m 2.32735,1.69954 1.95886,1.2883 c -0.19835,0.179 -0.45678,0.58939 -0.65339,0.77462 -2.12512,1.91557 -4.08199,3.79366 -5.36773,5.90694 -0.55669,0.89297 -1.1282,2.10971 -1.57618,3.08274 -0.30661,-0.60048 -0.22583,-1.24795 -0.13757,-1.67124 0.0612,-0.29323 0.33817,-0.90486 0.67643,-1.27692 0.16912,-0.18602 0.46586,-0.57901 0.60739,-0.74731 0.45745,-0.54397 0.70727,-0.90003 0.933,-1.27446 0.33579,-0.55696 0.89613,-1.06203 0.66265,-1.32116 -0.17808,-0.13433 -1.18017,1.06568 -1.56083,1.56996 -0.69353,0.91878 -1.83549,2.01896 -2.8043,2.44227 -0.1097,0.0479 -0.44324,-0.083 -0.55007,-0.0431 -0.0428,0.016 -1.13412,0.54494 -1.30198,0.2756 -0.0471,-0.41552 0.95884,-0.74771 1.56945,-1.17819 0.79371,-0.65509 1.25342,-0.97224 2.30928,-1.95067 1.49012,-1.38083 2.81146,-3.26368 4.33356,-4.99957 0.32325,-0.33845 0.61121,-0.60552 0.90143,-0.87774 z m -16.85711,1.2659 c -0.0517,0.79507 3.41069,-0.48762 3.47725,-0.4575 0.0704,0.13999 -2.79851,1.47284 -2.78384,1.65992 -0.12888,0.0521 -1.14018,0.21565 -1.26773,0.26233 l 0.22463,-1.38283 c 0.13411,-0.0314 0.23362,-0.0547 0.34969,-0.0819 z m 19.53614,0.5559 0.9267,0.82701 c -0.19779,0.18012 -0.38142,0.37027 -0.57117,0.5559 -2.21787,1.6611 -3.21447,4.30897 -3.98754,6.43353 -0.17369,0.47731 -0.2576,1.26194 -0.28716,1.76777 -0.159,0.80103 -0.16416,1.98554 -0.22992,2.90977 -0.0989,-0.14187 -0.54403,-0.40358 -0.57564,-0.83568 -0.1685,-0.48105 -0.14031,-1.04154 -0.0466,-1.24444 0.18848,-0.40903 -0.18445,-0.85292 -0.61779,-0.73535 -0.74468,0.20134 -1.04647,0.33583 -1.27056,0.3667 -0.11094,0.0153 -0.48,-0.0667 -0.68772,-0.0936 1.10296,-2.98277 3.70641,-6.94341 7.34742,-9.95159 z m 1.44428,1.12524 c -0.2009,0.26714 1.1062,0.88174 1.09541,0.89798 -1.66045,2.53586 -3.4752,3.93869 -4.94727,4.77354 0.69258,-1.40364 1.60421,-3.63581 2.67903,-4.7174 0.43613,-0.36479 0.65171,-0.71905 1.17283,-0.95412 z m -5.46205,-2.70206 c -0.14519,0.72059 -4.24867,5.07145 -4.79127,5.67146 -1.00231,1.10836 -2.07587,1.45378 -2.82793,2.04757 -0.37604,0.29689 -0.70765,0.49266 -0.92475,0.56955 -0.15853,0.0561 -0.16618,0.0343 -0.19428,0.0234 -0.20838,-0.31377 -0.26178,-0.58929 -0.17873,-0.94405 0.0746,-0.31884 0.24447,-0.66879 0.41186,-1.02014 1.44966,-0.41447 2.26399,-1.31415 3.8277,-2.51717 0.22993,-0.17691 4.35317,-3.89792 4.6774,-3.83063 z m 7.03485,3.68534 1.54252,1.13715 c -0.0622,0.13274 0.15543,0.41559 0.0922,0.54579 l -2.17747,3.50337 c -0.17767,0.28585 -1.75132,3.1979 -1.95857,3.45759 -0.15358,0.19244 -0.8242,1.89954 -0.93142,2.00475 -0.0645,0.0633 0.32597,-1.59288 0.31301,-1.99878 0.12016,-0.72528 0.76938,-1.90244 0.54958,-2.24921 -0.48808,0.29374 -0.9139,1.81524 -1.42994,2.3395 -1.15073,1.16908 -1.55183,1.57466 -2.04185,1.96881 -0.82308,0.13889 -0.31666,-2.45465 -0.28196,-2.94948 1.1217,-0.29322 2.36351,-0.7064 3.03849,-1.34384 0.74898,-0.71326 1.01657,-1.07612 1.96597,-1.99789 0.34663,-0.33656 1.38202,-1.5161 1.08853,-1.75397 -0.13755,-0.004 -0.7117,0.57858 -1.37778,1.24187 -0.80011,0.79675 -1.69601,1.6028 -2.43471,2.14937 -0.47584,0.35207 -0.87709,0.43551 -1.93826,0.72669 0.11293,-0.47063 0.24327,-0.91568 0.39047,-1.34002 0.14432,0.0441 0.30055,0.0243 0.42935,-0.0546 2.04281,-1.24734 3.16636,-2.33373 5.12882,-5.3308 0.0122,-0.0182 0.0232,-0.037 0.0331,-0.0565 z m 2.33905,1.81398 0.80624,0.56566 -0.002,0.002 c -1.69854,1.98233 -3.85491,5.84332 -5.4404,7.35178 1.46903,-2.6249 3.26583,-5.80988 4.63616,-7.91944 z m 1.6688,1.17227 2.39698,1.72976 c -0.57531,1.30835 -1.45559,2.31577 -2.23961,3.39623 -0.4163,0.53531 -1.20612,1.60674 -1.62793,2.14511 -1.33154,1.58015 -2.3668,2.43404 -3.57471,3.7806 -0.0213,-0.55685 0.0527,-1.15006 0.305,-1.81009 0.40048,-1.04767 1.10232,-2.1701 1.87475,-3.21643 0.7724,-1.04632 1.61197,-2.01804 2.28465,-2.79706 0.62665,-0.91228 0.39491,-1.15184 -0.36958,-0.62895 -1.83017,2.18021 -2.81467,2.87247 -4.39793,4.50843 -0.60249,0.62256 -1.70904,1.86134 -1.96889,1.39953 2.18078,-2.14275 4.63774,-5.3671 7.25313,-8.41948 0.0243,-0.027 0.0457,-0.0564 0.064,-0.0878 z m 4.36135,3.12176 c -0.51671,0.955 -1.26619,2.42226 -1.75099,3.52286 -1.33595,3.16192 -2.72513,5.8401 -3.18125,8.65972 -0.10651,-0.18255 -0.46879,-0.83444 -0.53258,-1.10059 -0.16199,-0.67594 -0.13474,-1.55717 0.19233,-2.4167 0.18107,-0.47039 -0.33182,-0.90542 -0.76349,-0.64758 -0.62917,0.37208 -1.15358,1.03517 -1.62025,1.54092 1.30427,-2.85839 2.88083,-5.2801 4.3781,-7.61369 0.57378,-0.79633 1.27559,-2.17514 1.73062,-3.01537 0.58683,0.24492 1.05146,0.68208 1.54751,1.07043 z m 4.10509,3.02045 c -0.42587,1.01555 -1.07584,2.19202 -1.76399,3.44073 -0.47617,0.81019 -0.96116,1.62259 -1.41432,2.45962 -0.80402,1.48511 -1.60865,3.37679 -2.01556,4.88403 -0.21591,-1.08291 0.0452,-2.09813 0.14349,-3.17363 0.28285,-3.0962 0.80436,-3.93842 1.50839,-6.20285 0.0845,-0.2717 0.80512,-1.65161 0.41245,-1.79355 -0.44699,-0.16158 -1.10255,1.93739 -1.10494,1.94251 -1.54868,3.32932 -2.31434,5.28337 -3.25681,8.53886 -0.14233,-0.37279 -0.54358,-1.00881 -0.67666,-1.7987 0.78928,-2.80503 2.14613,-5.81079 3.35958,-8.47669 0.41747,-0.76253 0.63627,-1.74979 1.09155,-2.52034 1.03327,1.11881 2.4582,1.84895 3.71682,2.70001 z m 1.74069,1.17618 c -2.31081,3.72345 -4.27458,7.23561 -4.78495,10.60887 -0.35717,0.84023 -1.06158,1.07984 -1.2144,1.00483 -0.0676,-0.10077 -0.0681,-0.64163 -0.0135,-1.10625 0.85025,-3.65485 2.57569,-7.10882 4.05691,-9.97269 1.05585,-1.27697 0.71735,-1.3182 1.95587,-0.53476 z m 2.50225,1.78278 c -0.0935,0.43174 -0.18891,0.92362 -0.28558,1.38682 -0.86172,3.44959 -1.44687,6.44072 -1.24529,9.36059 -0.003,0.36599 0.0185,0.71606 0.0331,1.07084 -0.57398,-0.21136 -0.61845,-0.75085 -0.74214,-1.20738 -0.0774,-0.82207 -0.16052,-1.68261 -0.21041,-2.61798 -0.15179,-2.84588 0.64155,-4.12853 1.29219,-5.8105 0.14588,-0.35788 0.47048,-1.18861 0.0857,-1.48806 -0.21285,0.009 -0.49392,1.46887 -0.56822,1.66932 -1.30158,3.33681 -1.29523,3.90469 -1.61931,5.64185 -0.22854,1.22507 -0.68756,2.15086 -1.18703,3.2919 -1.26117,-0.0592 0.003,-4.36062 0.53823,-6.21369 0.61163,-1.7338 1.23812,-3.50855 1.83915,-5.16368 0.96149,-0.54455 1.40326,-0.23656 2.06974,0.08 z m 12.95617,0.0209 c 1.12367,3.40081 2.12933,8.14959 4.35934,11.21406 0.17163,0.29063 -0.50149,0.56341 -0.78985,0.2262 -1.21391,-1.326 -2.10806,-3.05778 -3.0993,-5.24492 -0.20479,-0.45185 -1.05538,-2.85321 -1.58131,-4.25232 -0.23746,-0.6317 0.52064,-1.46084 1.11112,-1.94302 z m -33.14522,0.0896 c 0.24934,0.4375 -0.15773,0.17803 -0.12262,0.1983 -0.0473,-0.003 -0.93999,0.0823 -0.99349,0.0926 0.0154,-0.0228 0.19013,-0.93014 0.58234,-1.23663 0.16064,0.28004 0.44744,0.59107 0.53377,0.94575 z m 30.53217,1.08135 c 0.0991,0.9052 0.19546,1.37144 0.31846,2.18858 0.059,0.67491 0.12295,1.71438 0.20025,2.39126 0.3042,2.66404 1.59023,4.83333 2.79782,6.69579 -0.0386,0.1584 -1.04409,0.53165 -1.06487,0.53015 -0.34355,-0.0291 -0.30513,-0.0394 -0.60719,-0.5764 -0.027,-0.0472 -0.48276,-1.11984 -0.66621,-1.56118 -1.19938,-2.8856 -1.72531,-4.55042 -2.18547,-8.84194 -0.0144,-0.13491 0.18712,-0.35372 0.0843,-0.44176 l -0.0816,-0.0683 c -0.0594,-1.72663 -0.0986,-1.42402 1.20449,-0.31619 z m -13.26111,-0.70024 c -0.59285,1.44245 -1.13863,2.85258 -1.55225,4.21119 -0.5896,1.95446 -1.24792,4.02721 -1.3094,5.81258 -0.15555,-0.0429 -0.30278,-0.0887 -0.39437,-0.15214 -0.26685,-0.18487 -0.4202,-0.39479 -0.43517,-0.93041 0.19481,-0.0614 0.11717,-0.60829 0.14543,-0.81132 0.50246,-3.5851 1.82447,-5.90894 3.54576,-8.1299 z m 3.30474,0.0232 1.29954,0.75707 c 0.0245,0.49586 0.0913,1.0172 0.0389,1.56822 -0.21264,2.23525 -0.19992,4.33112 -0.0389,6.33337 0.11907,1.48051 0.77301,4.00084 1.33427,5.42039 -0.95237,-0.29318 -1.61276,-1.68237 -1.72912,-2.16389 -0.10564,-0.43723 -0.18456,-0.52089 -0.60864,-1.01082 -0.37178,0.50585 -0.4471,2.14926 -0.91981,2.1001 -0.34473,-0.0359 -0.26904,-0.97844 -0.31535,-1.17602 -0.12138,-0.5178 -0.17838,-2.67283 -0.18166,-2.95973 -0.0442,-3.87837 0.39866,-5.44575 1.12077,-8.86869 z m 8.4894,1.69312 c -0.0206,1.47869 -0.0436,2.88913 -0.25266,4.54768 -0.0228,0.18045 -0.31438,2.25056 -0.31031,2.4318 -1.01037,-1.11204 -1.29264,-4.42263 -1.47512,-6.12456 1.47257,-1.02768 0.80032,-1.88801 2.03809,-0.85492 z m -3.64631,-0.25918 0.94224,0.80167 c -0.0162,1.57559 -0.0727,3.28799 -0.0524,4.9953 0.009,0.7758 0.43645,3.47955 0.49156,4.23264 -0.93235,-0.84575 -1.56991,-5.0164 -1.7248,-6.86975 -0.091,-1.08855 0.36314,-2.21061 0.3434,-3.1599 z m 8.496,-0.51075 c 1.75935,3.34959 3.84095,6.37238 6.2921,8.43573 -0.23308,0.15342 -0.4888,0.35851 -0.67996,0.40961 -0.33314,0.0891 -0.59782,0.0754 -1.06268,-0.32769 -0.30729,-0.26416 -0.78419,-0.0981 -0.86256,0.30038 -1.59795,-2.32892 -2.86935,-5.43779 -3.6869,-8.81803 z m -10.88556,0.77016 1.45873,0.99735 c 0.0793,0.72463 -0.0803,1.34102 -0.0517,2.01426 0.045,1.06413 0.0775,2.65202 0.0907,3.74423 0.0235,1.94456 0.13386,3.24526 0.58461,4.9072 0.0203,-0.0346 0.1393,0.71488 -0.10753,0.98435 -0.0967,0.25836 -0.51157,0.8294 -0.59003,1.0332 -0.0696,0.0639 -0.47415,-0.53901 -0.58251,-0.82966 -0.58544,-1.57033 -1.18173,-5.19186 -1.34699,-6.92189 -0.21914,-2.29422 -0.0352,-3.57828 -0.0171,-5.50114 0.002,-0.26136 0.2632,-0.67907 0.56189,-0.4279 z m 8.76368,0.13674 c 0.38343,1.14122 0.7743,2.50395 1.20838,3.67459 0.63624,1.71584 1.3506,3.37449 2.25163,4.74173 -0.30157,-0.17987 -0.69078,-0.0205 -0.78098,0.31988 -0.0641,0.2444 -0.11828,0.48344 -0.17096,0.68464 -1.49005,-2.21572 -3.23368,-5.47733 -3.11968,-8.91772 -0.15088,-0.38299 0.32047,-0.44264 0.61161,-0.50312 z m -2.46743,2.89181 c 0.50313,-0.17612 1.0875,5.42657 1.95465,6.99299 0.73244,1.32308 1.9813,1.99098 0.1883,2.14413 -0.48654,0.13283 -0.92752,-0.98157 -1.01215,-0.97547 -2.20023,-1.71746 -1.3725,-5.9236 -1.1308,-8.16165 z m -1.95423,2.63773 c 0.42393,2.00097 1.68632,4.93428 2.87804,6.4763 -0.29858,0.87355 -1.58884,0.52615 -1.80388,0.40303 -0.78943,-0.45196 -1.63354,-6.13412 -1.63936,-6.43793 -0.15263,-1.81686 0.25734,-2.07105 0.5652,-0.4414 z m -1.88057,2.53763 c 0.42396,1.37397 0.96071,2.65631 1.64937,3.90106 -0.064,0.17779 -0.12561,0.34099 -0.18066,0.48373 -0.14832,0.0371 -0.28794,0.0636 -0.39439,0.0546 -0.0616,-0.005 -0.11685,-0.0172 -0.17289,-0.0293 -0.51407,-1.20376 -0.78302,-2.73422 -0.90143,-4.41016 z"
         id="path10475"
         inkscape:connector-curvature="0"
         sodipodi:nodetypes="ccccccccccscccccccccscccccccccscccccccccccccccccscccccccccccccccccccccccscccccccccccccccccccccccccccccccccccccccccccccccccccccccccccscccccccccccccccccccccccccccccccccccsssscsccccscccccccccccscccccccccccccccsccccccccccccccccsscccscccccccccccccccccccccccsccccccscccccscccccccccssssccccccccccccccccccsscccccccccssccccccccccccscccccccccccccsscscssscccccccccscccccccccccscccssccccccccccccccccccsccccccccc" />
      <g
         id="g10477"
         transform="matrix(0.99468047,0,0,0.99867037,0.54620933,0.30094609)"
         style="fill:#ffffff">
        <path
           sodipodi:nodetypes="csscsccc"
           inkscape:connector-curvature="0"
           id="path10479"
           d="m 114.98468,183.48331 c 1.80535,-1.63275 3.83832,-1.55885 7.58929,-1.875 3.09437,-0.26081 3.78627,0.0208 5.51325,1.23147 8.37921,5.87391 29.57532,20.61395 31.54031,22.16138 1.46355,1.35488 2.33462,3.85354 -0.71428,5.26786 -4.05919,1.88297 -6.24003,2.69836 -7.32143,2.41071 l -35.89285,-25.26785 c -1.34213,-0.89551 -1.62287,-2.50154 -0.71429,-3.92857 z"
           style="fill:#ffffff;fill-rule:evenodd;stroke:#000000;stroke-width:1.77756667;stroke-linecap:butt;stroke-linejoin:miter;stroke-miterlimit:4;stroke-dasharray:none;stroke-opacity:1" />
        <path
           sodipodi:nodetypes="ccccc"
           inkscape:connector-curvature="0"
           id="path10481"
           d="m 116.14539,187.67974 34.46429,24.28571 c 3.60433,2.75667 5.36979,-2.05865 2.67857,-3.57143 l -34.46428,-24.46429 c -3.26311,-2.43513 -6.33894,1.03024 -2.67858,3.75001 z"
           style="fill:#ffffff;fill-rule:evenodd;stroke:#000000;stroke-width:1.77756667;stroke-linecap:butt;stroke-linejoin:miter;stroke-miterlimit:4;stroke-dasharray:none;stroke-opacity:1" />
        <path
           sodipodi:nodetypes="ccccc"
           inkscape:connector-curvature="0"
           id="path10483"
           d="m 137.38008,192.19632 50,-70.71429 c 1.94101,-1.96517 4.53351,0.6386 3.03572,2.67857 l -50,70.17858 c -0.97672,1.12545 -4.09985,-0.9268 -3.03572,-2.14286 z"
           style="fill:#ffffff;fill-rule:evenodd;stroke:#000000;stroke-width:1.77756667;stroke-linecap:butt;stroke-linejoin:miter;stroke-miterlimit:4;stroke-dasharray:none;stroke-opacity:1" />
      </g>
    </g>
  </g>
  <g
     inkscape:groupmode="layer"
     id="layer2"
     inkscape:label="broom"
     style="display:inline">
    <path
       style="fill:#f4f2b5;fill-opacity:1;fill-rule:evenodd;stroke:none;stroke-width:1;stroke-linecap:butt;stroke-linejoin:miter;stroke-miterlimit:4;stroke-dasharray:none;stroke-opacity:1"
       d="m 527.53634,435.17608 c 15.52388,14.844 34.47508,22.90347 53.63569,30.54839 l -12.57305,5.79486 -1.3684,9.0735 -6.79265,-1.16886 -7.14184,2.8226 0.69144,5.2317 -8.43194,4.43347 c -4.23478,2.43209 -8.95295,0.53775 -12.92947,0.0179 2.79647,12.38982 -0.76869,10.00834 -2.00271,13.04002 -5.92084,2.76383 -12.22604,-0.0913 -18.30732,-4.18722 0.82581,8.63536 -0.35804,13.32746 -2.79744,15.55601 -6.84469,0.94216 -10.84224,-0.0116 -13.63517,-1.7675 -0.0841,5.73588 -1.19653,10.59212 -6.2294,12.09565 -4.28308,1.80915 -4.20174,1.24187 -6.08696,0.61661 l -10.24609,-10.9514 c 1.49305,4.80712 -3.81659,-1.53722 5.99091,16.89947 -1.65567,0.7757 -0.90434,3.47908 -6.42192,1.1619 l -14.2982,-13.89158 c 3.23043,7.44382 4.94329,15.7813 2.82639,23.51752 -4.42693,-6.31798 -8.82938,-12.91539 -13.57831,-15.55229 2.45847,5.83124 4.68026,14.36755 7.01738,21.58592 -1.35709,1.47942 -6.80917,-5.07632 -11.22611,-9.60079 0.2708,7.41677 0.19788,14.59511 -4.4973,18.5675 -3.15123,-0.52596 -2.87632,-3.92664 -2.82265,-7.1418 -1.26011,4.41448 -3.27192,9.54893 -6.53941,12.35574 -1.42671,-17.87766 -8.3005,-33.18967 -13.17598,-49.70429 3.80777,17.95748 9.38002,36.52377 4.6834,51.54691 l -3.69213,-3.77045 c 3.30801,13.78127 -3.17826,11.00275 -7.66567,8.80983 -6.27744,5.23417 -11.57696,6.2758 -16.63934,6.301 l -2.89399,-12.89385 c -1.31145,10.61065 -4.47118,16.07995 -9.47952,16.40788 -1.64702,6.17214 -3.40197,7.73201 -5.2102,7.01366 -2.90833,-0.67217 -2.52806,-6.7121 -3.09354,-10.61303 -5.91547,11.75762 -8.22463,9.53281 -12.08116,13.30742 -1.82219,2.04907 -3.43487,6.78292 -5.58086,4.68291 l -4.12344,-8.69209 c -3.46069,6.24999 -6.84638,5.34671 -10.20317,1.69293 3.73264,-6.2013 9.98963,-17.36466 12.4733,-24.99586 3.28487,-10.09303 5.31436,-16.84063 5.38079,-28.02672 z"
       id="path4392"
       inkscape:connector-curvature="0"
       sodipodi:nodetypes="cccccccccccccccccccccccccccccccccccccccscc" />
    <path
       style="fill:#f4f2b5;fill-opacity:1;fill-rule:evenodd;stroke:none;stroke-width:1.60621107;stroke-linecap:butt;stroke-linejoin:miter;stroke-miterlimit:4;stroke-dasharray:none;stroke-opacity:1"
       d="m 358.42041,535.86987 c -13.51941,-1.99568 -26.73486,-7.46629 -39.72241,-15.54133 -10.48725,14.34412 -19.9516,29.4592 -35.93343,39.66204 l 6.54319,4.01992 6.68212,-0.85182 c -0.21432,3.98407 -3.07153,9.99666 6.00869,6.84602 l 7.32716,-1.65727 2.41279,8.54242 7.88319,1.83885 c -1.81928,3.46386 -0.40526,4.21602 1.00148,4.97152 3.19412,2.73393 5.36588,2.08189 7.38781,0.93347 0.91788,3.89686 6.20512,4.12745 12.01006,3.92364 4.85414,-7.43086 10.76796,-17.60463 14.09472,-27.36882 2.62511,-7.70487 3.01678,-14.23359 4.30463,-25.31864 z"
       id="path4417"
       inkscape:connector-curvature="0"
       sodipodi:nodetypes="ccccccccccccsc" />
    <path
       sodipodi:nodetypes="ccccccccccccsc"
       inkscape:connector-curvature="0"
       id="path10940"
       d="m 358.42041,535.86987 c -13.51941,-1.99568 -26.73486,-7.46629 -39.72241,-15.54133 -10.48725,14.34412 -19.9516,29.4592 -35.93343,39.66204 l 6.54319,4.01992 6.68212,-0.85182 c -0.21432,3.98407 -3.07153,9.99666 6.00869,6.84602 l 7.32716,-1.65727 2.41279,8.54242 7.88319,1.83885 c -1.81928,3.46386 -0.40526,4.21602 1.00148,4.97152 3.19412,2.73393 5.36588,2.08189 7.38781,0.93347 0.91788,3.89686 6.20512,4.12745 12.01006,3.92364 4.85414,-7.43086 10.76796,-17.60463 14.09472,-27.36882 2.62511,-7.70487 3.01678,-14.23359 4.30463,-25.31864 z"
       style="fill:url(#linearGradient10948);fill-opacity:1;fill-rule:evenodd;stroke:none;stroke-width:1.60621107;stroke-linecap:butt;stroke-linejoin:miter;stroke-miterlimit:4;stroke-dasharray:none;stroke-opacity:1" />
    <path
       sodipodi:nodetypes="cccccccccccccccccccccccccccccccccccccccscc"
       inkscape:connector-curvature="0"
       id="path10906"
       d="m 527.53634,435.17608 c 15.52388,14.844 34.47508,22.90347 53.63569,30.54839 l -12.57305,5.79486 -1.3684,9.0735 -6.79265,-1.16886 -7.14184,2.8226 0.69144,5.2317 -8.43194,4.43347 c -4.23478,2.43209 -8.95295,0.53775 -12.92947,0.0179 2.79647,12.38982 -0.76869,10.00834 -2.00271,13.04002 -5.92084,2.76383 -12.22604,-0.0913 -18.30732,-4.18722 0.82581,8.63536 -0.35804,13.32746 -2.79744,15.55601 -6.84469,0.94216 -10.84224,-0.0116 -13.63517,-1.7675 -0.0841,5.73588 -1.19653,10.59212 -6.2294,12.09565 -4.28308,1.80915 -4.20174,1.24187 -6.08696,0.61661 l -10.24609,-10.9514 c 1.49305,4.80712 -3.81659,-1.53722 5.99091,16.89947 -1.65567,0.7757 -0.90434,3.47908 -6.42192,1.1619 l -14.2982,-13.89158 c 3.23043,7.44382 4.94329,15.7813 2.82639,23.51752 -4.42693,-6.31798 -8.82938,-12.91539 -13.57831,-15.55229 2.45847,5.83124 4.68026,14.36755 7.01738,21.58592 -1.35709,1.47942 -6.80917,-5.07632 -11.22611,-9.60079 0.2708,7.41677 0.19788,14.59511 -4.4973,18.5675 -3.15123,-0.52596 -2.87632,-3.92664 -2.82265,-7.1418 -1.26011,4.41448 -3.27192,9.54893 -6.53941,12.35574 -1.42671,-17.87766 -8.3005,-33.18967 -13.17598,-49.70429 3.80777,17.95748 9.38002,36.52377 4.6834,51.54691 l -3.69213,-3.77045 c 3.30801,13.78127 -3.17826,11.00275 -7.66567,8.80983 -6.27744,5.23417 -11.57696,6.2758 -16.63934,6.301 l -2.89399,-12.89385 c -1.31145,10.61065 -4.47118,16.07995 -9.47952,16.40788 -1.64702,6.17214 -3.40197,7.73201 -5.2102,7.01366 -2.90833,-0.67217 -2.52806,-6.7121 -3.09354,-10.61303 -5.91547,11.75762 -8.22463,9.53281 -12.08116,13.30742 -1.82219,2.04907 -3.43487,6.78292 -5.58086,4.68291 l -4.12344,-8.69209 c -3.46069,6.24999 -6.84638,5.34671 -10.20317,1.69293 3.73264,-6.2013 9.98963,-17.36466 12.4733,-24.99586 3.28487,-10.09303 5.31436,-16.84063 5.38079,-28.02672 z"
       style="fill:url(#linearGradient10938);fill-opacity:1;fill-rule:evenodd;stroke:none;stroke-width:1;stroke-linecap:butt;stroke-linejoin:miter;stroke-miterlimit:4;stroke-dasharray:none;stroke-opacity:1" />
    <path
       style="color:#000000;font-style:normal;font-variant:normal;font-weight:normal;font-stretch:normal;font-size:medium;line-height:normal;font-family:sans-serif;text-indent:0;text-align:start;text-decoration:none;text-decoration-line:none;text-decoration-style:solid;text-decoration-color:#000000;letter-spacing:normal;word-spacing:normal;text-transform:none;direction:ltr;block-progression:tb;writing-mode:lr-tb;baseline-shift:baseline;text-anchor:start;white-space:normal;clip-rule:nonzero;display:inline;overflow:visible;visibility:visible;opacity:0.91000001;isolation:auto;mix-blend-mode:normal;color-interpolation:sRGB;color-interpolation-filters:linearRGB;solid-color:#000000;solid-opacity:1;fill:#000000;fill-opacity:1;fill-rule:evenodd;stroke:none;stroke-width:1.0629921;stroke-linecap:butt;stroke-linejoin:round;stroke-miterlimit:4;stroke-dasharray:none;stroke-dashoffset:0;stroke-opacity:1;color-rendering:auto;image-rendering:auto;shape-rendering:auto;text-rendering:auto;enable-background:accumulate"
       d="m 524.72266,431.94494 c 0.50568,0.0625 0.97878,0.28312 1.35024,0.63296 16.95746,16.08992 37.11137,25.09143 54.47404,30.40769 2.04667,0.62637 2.31028,3.42722 0.41686,4.42993 l -10.73561,5.69979 -1.42036,8.05025 c -0.26461,1.50064 -1.8337,2.38084 -3.24446,1.81966 -1.35787,-0.53789 -2.71903,-1.16839 -4.08236,-1.83946 -0.55878,0.91681 -1.2976,1.79596 -2.41135,2.30091 -0.90914,0.41222 -2.24987,0.25821 -3.39647,0.32416 0.19778,1.28141 0.75169,2.52144 0.22936,3.8455 -0.92226,2.33776 -3.32423,3.90009 -6.5595,4.54736 -0.34771,0.0683 -0.70614,0.0579 -1.04943,-0.0294 -1.84617,1.94358 -4.40422,2.96609 -7.04924,3.17316 -1.87185,0.14657 -3.87007,-0.56429 -5.8371,-0.98106 0.34834,1.05305 0.76858,1.85073 0.943,3.06474 0.39017,2.71623 -0.11217,6.00464 -2.55726,8.61643 -0.13426,0.14069 -0.28433,0.26452 -0.44773,0.36899 -0.67155,0.4363 -1.41455,0.61696 -2.16505,0.69814 -1.42253,1.41927 -3.50933,1.83045 -5.49577,1.68486 -2.34964,-0.17371 -4.92282,-0.97806 -7.60865,-2.25444 -1.25244,-0.59515 -2.49041,-1.63396 -3.75643,-2.43217 0.82527,4.93163 -0.73539,10.06477 -3.14421,14.11242 -0.55178,0.92534 -1.64901,1.36979 -2.68533,1.08751 l -0.009,-7.9e-4 c -4.02669,0.51842 -6.02994,0.66647 -7.95834,0.22683 -1.09171,-0.24886 -2.3932,-0.85444 -3.47397,-1.31575 -0.11065,1.73284 0.29629,3.41792 -0.4756,5.12404 -1.3862,3.06941 -6.58917,8.50503 -7.61068,5.34632 -0.88539,2.62007 -2.50375,2.1629 -3.35157,2.43701 -1.49023,-0.1918 -2.52449,-0.99024 -3.6923,-2.05382 -1.92215,-1.75056 -4.75941,-5.44754 -8.0237,-9.7374 2.2215,6.86767 4.15299,7.53155 7.6645,14.1707 0.64605,1.23703 -1.16635,2.65358 -2.44208,3.21234 -3.51404,1.53479 -6.29074,-0.26325 -9.67257,-2.4969 -1.90172,-1.25597 -6.29711,-7.57024 -8.17813,-9.51328 0.073,0.23798 2.89313,6.2904 2.96105,6.52827 1.59109,5.57834 1.74949,9.37559 -0.86702,14.22192 -0.85027,1.57841 -3.05943,1.70251 -4.07767,0.22897 -1.00477,-1.4537 -5.94347,-10.03023 -8.09821,-11.63119 2.31983,3.25841 5.94894,11.9887 6.127,14.45877 0.15047,1.26038 -0.59789,2.48062 -0.83122,3.3443 -0.86432,1.64276 -2.27783,0.98292 -3.55525,1.33083 -1.06133,-0.3049 -1.63286,-0.84279 -2.22885,-1.40208 -1.76781,-1.81706 -3.5035,-3.95494 -4.95337,-5.62564 -0.0381,2.38045 0.59059,5.00342 -0.084,7.02216 -1.3296,3.97903 -3.77401,7.27212 -7.40149,8.2104 -0.8634,0.22478 -1.77929,-0.0501 -2.37743,-0.71392 -0.33558,0.82948 -0.64869,1.76677 -1.01802,2.44055 -0.66366,1.21063 -1.34042,2.28125 -2.71629,2.95756 -0.68801,0.33843 -1.60956,0.48631 -2.439,0.29257 -1.70609,-0.0523 -1.93448,-1.70414 -2.67029,-2.41709 -0.49574,-2.66385 -2.81331,-22.75928 -4.3944,-25.76295 0.85116,3.16846 2.35358,22.49982 1.93653,24.55384 -0.56837,2.79842 -1.10276,8.75573 -4.23291,4.76629 0.25173,0.86745 0.0656,3.71201 -0.0707,4.40744 -1.03378,1.42856 -2.23571,2.48112 -3.71881,2.89656 -1.48301,0.41542 -2.98105,0.0258 -4.06899,-0.57761 -0.91412,-0.50725 -1.3558,-1.18431 -2.04038,-1.83826 -0.87486,1.80832 -2.02583,3.31764 -3.53947,4.18144 -1.56263,0.89177 -3.20895,1.31186 -4.85252,1.60799 -0.0496,0.25413 -0.0725,0.51722 -0.12924,0.76977 -0.14792,0.67653 -0.57867,1.25656 -1.18249,1.59179 -5.41806,3.00263 -10.07823,1.38624 -10.39865,-10.52821 -0.26236,4.94912 -0.92569,8.33902 -2.23055,9.68068 -1.49837,1.54081 -3.57349,2.6615 -6.16701,3.29475 -0.38841,1.88065 -0.826,3.71682 -1.36125,5.45488 -0.13512,0.44186 -0.39292,0.83483 -0.7445,1.13307 -0.74145,0.6258 -1.52718,1.12362 -2.52833,1.31429 -1.00115,0.19044 -2.18756,-0.10402 -2.94738,-0.66649 -1.5196,-1.12393 -1.86815,-2.53629 -2.27476,-3.90905 -0.37018,-1.25017 -0.11996,-4.04784 -0.42174,-5.25079 -1.24054,1.63787 -2.53999,5.77371 -4.15226,6.90977 -1.35795,0.95677 -2.81057,1.6984 -4.29731,2.2335 -0.66702,2.12443 -2.10461,3.46666 -3.24141,4.91752 -1.60372,0.72468 -3.34547,3.02919 -4.83761,2.65025 -1.49214,-0.37901 -2.42457,-3.45579 -3.06974,-4.52247 -0.54206,-0.89639 -0.58837,-1.70431 -0.85865,-2.6136 -0.16891,0.11535 -0.34861,0.16698 -0.51906,0.27401 -0.30443,0.53066 -0.58078,1.09076 -0.90887,1.598 -0.25027,0.38491 -0.60539,0.68925 -1.02276,0.87798 -1.6037,0.72463 -3.17104,1.03608 -4.6632,0.65704 -1.49214,-0.379 -2.59896,-1.46267 -3.24407,-2.52935 -0.90758,0.23094 -1.53984,-0.39455 -1.96426,-0.50311 -0.14829,-0.063 -0.94832,-0.77222 -1.08109,-0.86384 -0.95742,0.38971 -2.02797,0.42797 -2.94511,0.62148 -2.90614,-0.009 -5.48033,-1.129 -7.84985,-2.12461 -0.79303,-0.33467 -1.34605,-1.07098 -1.44903,-1.92859 -2.59503,-0.18018 -4.9356,-1.16019 -7.09463,-2.06741 -1.37501,-0.57762 -1.89585,-2.26224 -1.08871,-3.52125 -2.68421,-0.13564 -5.09371,-1.15373 -7.31396,-2.08665 -1.39686,-0.59312 -1.89942,-2.32388 -1.03938,-3.57909 -0.15607,-0.23934 -0.37228,-0.46758 -0.48615,-0.70815 -0.44667,-0.9438 -0.40242,-1.7488 -0.57905,-2.67788 -1.75923,0.95752 -3.57544,1.51153 -5.30543,1.32869 -0.48783,-0.0518 -0.94351,-0.17584 -1.4074,-0.28286 l -0.0575,0.0482 c -0.36575,0.2797 -0.80414,0.44767 -1.26232,0.48425 -1.75295,0.13877 -3.33311,-0.10003 -4.60995,-0.96247 -1.27682,-0.86252 -1.94846,-2.26215 -2.19686,-3.48505 -0.20829,-1.02604 0.0208,-1.79886 0.0717,-2.74521 -1.93633,0.50605 -3.82865,0.60428 -5.46415,0.0101 -2.73217,-0.99258 -4.77754,-2.92621 -6.67272,-4.66663 -1.15775,-1.06539 -0.99788,-2.94278 0.32309,-3.79712 15.04927,-9.71062 24.43001,-22.49906 36.61754,-42.95882 0.31764,-0.53082 0.82622,-0.91861 1.42077,-1.08278 11.97467,-5.10618 39.20497,3.85453 41.54028,16.46878 28.00012,-19.55066 59.56802,-36.59208 86.66819,-52.32853 l -0.0232,-0.0475 17.32448,-10.58186 1.00928,0.48782 c 0.0398,-0.0375 0.0813,-0.0712 0.12429,-0.10471 l 8.29353,-6.17969 c 0.45543,-0.33737 1.01448,-0.50215 1.57884,-0.46547 l 0.0361,0.004 10.30517,-5.93267 c 0.20308,-0.48519 0.55782,-0.89063 1.01151,-1.15408 l 9.86173,-5.71408 7.9e-4,-0.009 c 0.16638,-0.1802 0.35822,-0.33406 0.5703,-0.45603 l 16.26152,-9.54762 c 0.10936,-0.0641 0.22343,-0.1197 0.34165,-0.16533 0.15992,-0.20533 0.35114,-0.38336 0.56773,-0.52723 l 8.22341,-5.37817 c 0.47564,-0.30831 1.04425,-0.43767 1.60546,-0.36545 z m 1.44217,4.94878 -7.88747,5.18641 c 4.71791,4.89155 11.90285,9.40263 17.41527,14.56082 5.67824,4.58035 19.43935,10.39358 25.46329,13.25691 1.04472,-1.20177 -14.28833,-9.3986 -18.70733,-13.30977 -1.99712,-1.39957 -3.48235,-4.20577 -1.05256,-4.02714 0.45577,0.0353 1.25808,0.4741 1.25808,0.4741 7.68252,5.58506 13.74772,10.46871 15.88522,11.7175 2.13755,1.2488 2.83906,3.05803 8.96786,5.09482 l 2.96479,-1.02279 7.15035,-3.23967 c -16.20052,-5.44651 -35.65447,-14.19608 -51.45751,-28.69109 z m -11.24176,6.52222 -13.37393,8.02471 c 4.23342,4.27584 8.59299,7.86606 11.72242,11.71496 10.8689,10.32128 17.12645,18.93196 34.75581,25.05243 1.4025,-0.42211 3.23616,-1.66653 3.39965,-2.08101 0.14385,-0.36465 0.0872,-1.46448 -0.13871,-2.45584 -8.97524,-1.57445 -14.51225,-6.74033 -24.618,-16.46284 -1.69287,-1.57617 -9.39514,-7.77807 -6.97488,-8.94933 1.83965,-0.11345 8.74193,6.99945 9.12628,7.3826 10.46557,10.06866 16.07074,12.41037 24.41754,13.51393 0.17398,0.0139 0.34614,0.0485 0.51304,0.0981 1.88417,0.16029 2.97792,-0.0261 3.34978,-0.19514 0.15399,-0.0698 0.21169,-0.11026 0.2704,-0.16246 -9.72728,-5.63309 -19.36761,-14.01164 -28.08838,-22.49874 -4.55701,-3.84603 -9.23734,-8.13171 -14.36123,-12.98119 z m -15.44197,9.47445 -5.63385,2.96259 -1.03093,0.9584 c 6.2944,6.60846 14.03372,14.25149 20.81252,20.47899 6.59142,6.05537 12.55058,10.68697 17.9146,12.61607 0.15952,0.0231 2.26367,0.65972 3.97511,0.84913 2.93155,1.07451 3.46819,0.96156 5.6971,0.78693 0.75628,-0.0594 3.01133,-1.27335 3.58678,-1.46113 -10.94687,-4.44942 -21.8411,-12.38604 -26.5539,-16.26827 -2.34743,-2.53687 -4.54963,-5.18915 -6.78855,-7.8897 -4.60934,-4.38387 -8.02857,-8.94101 -11.97888,-13.03305 z m -11.18139,6.75535 -9.35487,5.04383 c 0.82499,0.8867 1.82988,2.84205 2.64455,3.7562 8.83988,9.49 16.93478,18.74428 21.90604,28.79547 2.16113,4.25245 4.26125,9.97283 5.89983,14.54387 1.62184,-2.59053 1.51286,-5.54632 1.28152,-7.4927 -0.16051,-1.34834 -1.16962,-4.21979 -2.55015,-6.03361 -0.69023,-0.90684 -1.87499,-2.79875 -2.44762,-3.61469 -1.85086,-2.63721 -2.83832,-4.34382 -3.70975,-6.12386 -1.29632,-2.64781 -3.62719,-5.15 -2.47045,-6.22795 0.85725,-0.53624 4.90841,5.27871 6.42818,7.70635 2.76888,4.42305 7.49111,9.84246 11.69885,12.13682 0.47647,0.25965 2.03439,-0.1997 2.50105,0.0227 0.18696,0.0892 4.90621,2.90892 5.77064,1.75895 0.37687,-1.85781 -4.03455,-3.75535 -6.62188,-5.94058 -3.32545,-3.27186 -5.27613,-4.88568 -9.65765,-9.72126 -6.1836,-6.82432 -11.40666,-15.849 -17.59439,-24.28936 -1.32603,-1.65609 -2.52089,-2.97591 -3.72393,-4.31986 z m 75.62378,12.37657 c -0.0807,3.61084 -15.20945,-3.54953 -15.52193,-3.4398 -0.37323,0.60436 12.05571,7.75675 11.91555,8.59577 0.56142,0.2862 5.06366,1.42431 5.62122,1.68551 l -0.46806,-6.33338 c -0.59322,-0.19479 -1.03337,-0.33932 -1.54679,-0.50801 z m -88.4416,-5.20807 -4.51157,3.36853 c 0.82202,0.89152 1.57615,1.82276 2.35968,2.736 9.35927,8.3775 12.81361,20.72858 15.46529,30.62817 0.59578,2.22408 0.66471,5.80049 0.59835,8.09641 0.40154,3.68013 -0.0432,9.03123 -0.11132,13.23088 0.50267,-0.60159 2.6162,-1.60756 2.92965,-3.54637 0.95098,-2.10577 1.04512,-4.64798 0.7021,-5.60127 -0.68955,-1.92158 1.16992,-3.77878 3.08036,-3.07664 3.28331,1.20343 4.593,1.92999 5.59277,2.15793 0.49494,0.11293 2.19395,-0.11156 3.14261,-0.15097 -3.80234,-13.90545 -13.99431,-32.81963 -29.24802,-47.84258 z m -6.9667,4.51079 c 0.80169,1.28573 -5.34378,3.54475 -5.30146,3.62235 6.49643,12.10754 14.1373,19.15947 20.4551,23.5111 -2.57302,-6.61224 -5.80789,-17.05251 -10.23429,-22.36144 -1.82537,-1.81964 -2.65892,-3.50459 -4.91935,-4.77201 z m 25.73326,-10.04408 c 0.37095,3.31142 17.18265,24.58041 19.39588,27.50433 4.08836,5.40116 8.79992,7.38516 11.9615,10.36375 1.58084,1.48928 3.00099,2.50435 3.95099,2.93735 0.69374,0.31597 0.73689,0.22055 0.8681,0.18243 1.06496,-1.3346 1.41497,-2.55771 1.1801,-4.19256 -0.21092,-1.4693 -0.83977,-3.11674 -1.45686,-4.7695 -6.38267,-2.44442 -9.7046,-6.82895 -16.29076,-12.87939 -0.96843,-0.88974 -18.1182,-19.32223 -19.60894,-19.14647 z m -33.22424,13.86302 -7.41504,4.52575 c 0.22845,0.624 -0.86608,1.81534 -0.632,2.42828 l 8.44898,16.68092 c 0.6894,1.36104 6.64524,15.1331 7.47854,16.38771 0.61751,0.9297 2.97147,8.90364 3.41409,9.4211 0.26627,0.31134 -0.8427,-7.32197 -0.62381,-9.14983 -0.25608,-3.32271 -2.72277,-8.89507 -1.59319,-10.37418 2.08804,1.51931 3.40984,8.55839 5.53307,11.12974 4.73462,5.734 6.38569,7.72401 8.44281,9.69752 3.66202,0.95239 2.39978,-10.95968 2.43858,-13.20796 -4.94956,-1.76731 -10.39413,-4.12377 -13.19039,-7.26902 -3.10047,-3.51687 -4.1655,-5.26121 -8.08866,-9.79886 -1.43235,-1.6568 -5.64198,-7.39247 -4.22265,-8.35071 0.62273,0.0362 2.98534,2.89396 5.73118,6.15242 3.29838,3.9141 7.02567,7.90805 10.14557,10.66811 2.00971,1.77789 3.78873,2.31322 8.46576,4.0474 -0.32404,-2.16991 -0.7368,-4.23118 -1.23388,-6.20558 -0.66915,0.14212 -1.36683,-0.009 -1.9173,-0.4162 -8.73219,-6.43986 -13.37674,-11.78972 -21.05479,-26.09932 -0.0479,-0.087 -0.0901,-0.17625 -0.12715,-0.26822 z m -11.27944,7.26751 -3.86433,2.23589 0.009,0.01 c 6.88713,9.62293 15.09953,27.91048 21.66337,35.34882 -5.59683,-12.434 -12.45255,-27.52672 -17.80728,-37.59454 z m -7.99917,4.63446 -11.50777,6.8643 c 2.08111,6.13559 5.65829,11.03272 8.77192,16.22165 1.66845,2.58184 4.81183,7.73229 6.50396,10.33013 5.38871,7.66177 9.72643,11.92681 14.64915,18.48488 0.31618,-2.50623 0.21638,-5.2143 -0.6622,-8.29457 -1.39459,-4.88933 -4.12052,-10.23532 -7.19529,-15.26556 -3.07465,-5.03017 -6.48211,-9.74998 -9.21203,-13.53368 -2.46942,-4.36728 -1.32828,-5.35755 1.91745,-2.69422 7.40338,10.56854 11.57571,14.08363 18.07911,22.09687 2.47478,3.04943 6.98235,9.08073 8.33825,7.09793 -9.00148,-10.53789 -18.8228,-26.06923 -29.42754,-40.88658 -0.0991,-0.13152 -0.18408,-0.27275 -0.25432,-0.42177 z m -20.92849,12.37425 c 1.95606,4.51677 4.76091,11.43878 6.51535,16.60045 4.7837,14.80651 9.99891,27.44958 10.94468,40.36273 0.55311,-0.7823 2.44665,-3.58299 2.83987,-4.75968 0.99857,-2.98843 1.22368,-6.97869 0.0862,-10.98941 -0.63184,-2.19574 1.85615,-3.95763 3.70364,-2.62271 2.69422,1.92882 4.80039,5.13041 6.70799,7.59867 -4.76057,-13.42331 -10.92328,-24.98223 -16.76273,-36.11188 -2.27648,-3.82279 -4.90099,-10.32654 -6.62386,-14.30066 -2.74681,0.87417 -5.01771,2.66474 -7.41121,4.22249 z m -19.73124,12.01799 c 1.52193,4.75432 3.99228,10.32386 6.6065,16.2347 1.83022,3.84681 3.69938,7.70709 5.41508,11.66602 3.04409,7.02416 5.93028,15.88457 7.17233,22.85178 1.40287,-4.80494 0.62483,-9.49267 0.60588,-14.38827 -0.0541,-14.09368 -2.07635,-18.10305 -4.361,-28.60699 -0.27423,-1.26034 -2.98325,-7.7765 -1.15395,-8.26234 2.08238,-0.55306 4.21351,9.18455 4.22228,9.20861 5.67822,15.64651 8.3638,24.77318 11.33365,39.84679 0.79002,-1.62723 2.85328,-4.34087 3.76632,-7.85529 -2.45604,-12.97889 -7.39582,-27.08847 -11.82231,-39.60665 -1.58396,-3.6084 -2.18197,-8.15314 -3.93351,-11.8127 -5.10809,4.64414 -11.83131,7.37837 -17.85127,10.72434 z m -8.32537,4.62372 c 8.96417,17.72745 16.44463,34.36364 17.41665,49.79836 1.28096,3.93545 4.36729,5.2958 5.08704,5.01743 0.34509,-0.42834 0.56103,-2.87058 0.49802,-4.9903 -2.39561,-16.84062 -8.82281,-33.11987 -14.38027,-46.63784 -4.26354,-6.18374 -2.71864,-6.23619 -8.62111,-3.18762 z m -12.00409,7.06214 c 0.25166,1.98661 0.48818,4.24555 0.74172,6.37547 2.52851,15.91824 3.98921,29.65687 1.9253,42.76289 -0.13105,1.65393 -0.36645,3.22629 -0.57255,4.82265 2.67551,-0.7277 3.08947,-3.14637 3.82841,-5.15912 0.67431,-3.68175 1.38965,-7.53497 1.9845,-11.73924 1.80982,-12.79155 -1.26602,-18.89722 -3.53968,-26.74978 -0.51738,-1.67375 -1.65501,-5.55344 0.2009,-6.75368 0.95764,0.12473 1.65013,6.82831 1.90647,7.76286 4.5594,15.58271 4.30636,18.14466 5.08352,26.11742 0.54806,5.62252 2.25514,9.98458 4.05986,15.33466 5.71862,0.23093 1.70927,-19.69302 0.0244,-28.27264 -2.07702,-8.0712 -4.20497,-16.3332 -6.26522,-24.04495 -4.12677,-2.83896 -6.24342,-1.62267 -9.3782,-0.45645 z m -58.51617,-5.02439 c -6.41792,14.91354 -12.83549,35.96093 -24.11657,48.91853 -0.88987,1.24463 2.04206,2.74239 3.47748,1.33353 6.00568,-5.5084 10.72772,-12.97556 16.06811,-22.4607 1.10331,-1.95957 5.89317,-12.46767 8.82095,-18.57803 1.32191,-2.75883 -1.77397,-6.80261 -4.24997,-9.21333 z m 149.64293,13.49977 c -1.29883,1.87716 0.64195,0.86628 0.47538,0.94394 0.21479,0.005 4.21233,0.74302 4.44986,0.81067 -0.0606,-0.10904 -0.49112,-4.27547 -2.14118,-5.81449 -0.83606,1.20116 -2.25408,2.4924 -2.78407,4.05997 z m -138.30546,-7.17959 c -0.80515,4.04858 -1.4245,6.11599 -2.30278,9.75746 -0.53309,3.02446 -1.23255,7.69327 -1.84905,10.71942 -2.42624,11.91017 -9.09079,21.19823 -15.2799,29.13169 0.11173,0.73057 4.5049,2.81335 4.59933,2.81479 1.56292,0.004 1.39349,-0.0573 2.96969,-2.36304 0.14058,-0.20248 2.6225,-4.86627 3.6253,-6.78682 6.55626,-12.55703 9.58901,-19.8673 13.36253,-39.06529 0.11832,-0.60354 -0.70525,-1.67127 -0.20615,-2.02823 l 0.39548,-0.27619 c 0.9504,-7.7737 1.00787,-6.39168 -5.31436,-1.90374 z m 60.16164,2.07709 c 2.10732,6.7481 4.01486,13.33163 5.34592,19.63032 1.89037,9.05895 4.04432,18.67923 3.61658,26.76596 0.71939,-0.13227 1.40235,-0.28092 1.84102,-0.53122 1.27809,-0.72942 2.05353,-1.6168 2.33275,-4.02965 -0.85548,-0.35424 -0.28879,-2.79323 -0.3362,-3.72125 -0.85261,-16.38823 -5.90448,-27.40461 -12.80007,-38.11416 z m -14.93283,-1.20088 -6.16761,2.90537 c -0.30654,2.22955 -0.81417,4.55744 -0.79524,7.06646 0.0771,10.17803 -0.80835,19.63761 -2.32656,28.61582 -1.12263,6.6387 -5.07145,17.76172 -8.16685,23.95043 4.41658,-0.94768 7.94763,-6.96013 8.66334,-9.08862 0.64979,-1.93272 1.03924,-2.27933 3.14787,-4.32423 1.47905,2.43122 1.16989,9.88235 3.32399,9.84711 1.57094,-0.0259 1.60152,-4.31219 1.8887,-5.18613 0.75271,-2.29034 1.86154,-11.99958 1.98969,-13.29387 1.73189,-17.49662 0.35124,-24.74962 -1.55733,-40.49234 z m -39.00565,4.29182 c -0.49118,6.68565 -0.94455,13.06406 -0.65574,20.63639 0.0316,0.82389 0.53052,10.28737 0.44054,11.10421 5.00201,-4.62262 7.58466,-19.46117 9.08111,-27.07471 -6.24386,-5.22262 -2.86819,-8.84213 -8.86591,-4.66589 z m 16.56853,0.27019 -4.57173,3.24795 c -0.54933,7.1215 -0.97073,14.87673 -1.73693,22.57864 -0.34715,3.49983 -3.34565,15.54064 -3.89206,18.9197 4.54449,-3.45092 9.07136,-22.03299 10.50305,-30.34121 0.841,-4.87977 -0.76651,-10.12623 -0.30231,-14.40527 z m -38.16474,-5.6631 c -9.26831,14.43111 -19.86273,27.25911 -31.74691,35.60845 0.99193,0.7849 2.0657,1.81209 2.90875,2.11837 1.46921,0.53398 2.66988,0.57669 4.92836,-1.05994 1.49203,-1.0715 3.58003,-0.13318 3.77651,1.69725 8.13618,-9.8857 15.10589,-23.42253 20.13329,-38.36413 z m 48.85311,7.77863 -6.98143,3.92755 c -0.64439,3.24097 -0.16718,6.08754 -0.56232,9.11649 -0.62364,4.78765 -1.39775,11.94546 -1.88887,16.87248 -0.8744,8.77203 -1.88665,14.60217 -4.57877,21.92914 -0.078,-0.16427 -0.91149,3.17324 0.0967,4.48764 0.33461,1.20492 1.98248,3.94755 2.25628,4.89888 0.28905,0.31606 2.35413,-2.24676 2.95829,-3.51647 3.26418,-6.86005 7.38772,-22.9787 8.81752,-30.72594 1.89601,-10.27373 1.57268,-16.14502 2.25063,-24.83549 0.0943,-1.18104 -0.92028,-3.17055 -2.36834,-2.15431 z m -39.62936,-2.8449 c -2.18238,5.00207 -4.48588,11.00151 -6.90862,16.11643 -3.55104,7.49709 -7.43229,14.70504 -12.04136,20.52329 1.4329,-0.69313 3.12754,0.18034 3.4004,1.75306 0.1929,1.12901 0.34313,2.22987 0.50152,3.15928 7.60422,-9.41713 16.76678,-23.45714 17.61122,-39.03841 0.83266,-1.66991 -1.27231,-2.1255 -2.56316,-2.51365 z m 10,14.03378 c -2.20246,-0.99411 -7.05492,24.07583 -11.58969,30.80694 -3.83031,5.68543 -9.73383,8.20815 -1.69745,9.60813 2.14466,0.79206 4.57634,-4.06616 4.9561,-4.00518 10.61441,-6.88648 8.5383,-26.20773 8.33104,-36.40989 z m 7.78286,12.68363 c -2.70495,8.86857 -9.5646,21.61615 -15.55544,28.10884 1.0032,4.06277 6.96707,3.00373 7.98678,2.5327 3.74351,-1.72909 9.80031,-27.05528 9.94662,-28.42494 1.40706,-8.14434 -0.34386,-9.4542 -2.37796,-2.2166 z m 7.48976,12.20251 c -2.45737,6.03711 -5.38788,11.6159 -8.98953,16.9649 0.21877,0.82816 0.43252,1.58949 0.62472,2.25582 0.65513,0.22614 1.27516,0.40097 1.75943,0.40238 0.28015,0.002 0.53447,-0.0314 0.79232,-0.064 2.79704,-5.23288 4.61623,-12.03793 5.8131,-19.55941 z"
       id="path4153-2-20-6"
       inkscape:connector-curvature="0"
       sodipodi:nodetypes="ccccccccccscccccccccscccccccccscccccccccccccccccscccccccccccccccccccccccscccccccccccccccccccccccccccccccccccccccccccccccccccccccccccscccccccccccccccccccccccccccccccccccsssscsccccscccccccccccscccccccccccccccsccccccccccccccccsscccscccccccccccccccccccccccsccccccscccccscccccccccssssccccccccccccccccccsscccccccccssccccccccccccscccccccccccccsscscssscccccccccscccccccccccscccssccccccccccccccccccsccccccccc" />
    <g
       id="g4333"
       transform="matrix(-4.4918126,-0.39298267,-0.39455901,4.5098302,1119.5493,-363.91733)"
       style="fill:#825201;fill-opacity:1">
      <path
         sodipodi:nodetypes="csscsccc"
         inkscape:connector-curvature="0"
         id="path4151"
         d="m 114.98468,183.48331 c 1.80535,-1.63275 3.83832,-1.55885 7.58929,-1.875 3.09437,-0.26081 3.78627,0.0208 5.51325,1.23147 8.37921,5.87391 29.57532,20.61395 31.54031,22.16138 1.46355,1.35488 2.33462,3.85354 -0.71428,5.26786 -4.05919,1.88297 -6.24003,2.69836 -7.32143,2.41071 l -35.89285,-25.26785 c -1.34213,-0.89551 -1.62287,-2.50154 -0.71429,-3.92857 z"
         style="fill:#825201;fill-opacity:1;fill-rule:evenodd;stroke:#000000;stroke-width:0.44267327;stroke-linecap:butt;stroke-linejoin:miter;stroke-miterlimit:4;stroke-dasharray:none;stroke-opacity:1" />
      <path
         sodipodi:nodetypes="ccccc"
         inkscape:connector-curvature="0"
         id="path4147"
         d="m 116.14539,187.67974 34.46429,24.28571 c 3.60433,2.75667 5.36979,-2.05865 2.67857,-3.57143 l -34.46428,-24.46429 c -3.26311,-2.43513 -6.33894,1.03024 -2.67858,3.75001 z"
         style="fill:#825201;fill-opacity:1;fill-rule:evenodd;stroke:#000000;stroke-width:0.44267327;stroke-linecap:butt;stroke-linejoin:miter;stroke-miterlimit:4;stroke-dasharray:none;stroke-opacity:1" />
      <path
         sodipodi:nodetypes="ccccc"
         inkscape:connector-curvature="0"
         id="path4149"
         d="m 137.38008,192.19632 50,-70.71429 c 1.94101,-1.96517 4.53351,0.6386 3.03572,2.67857 l -50,70.17858 c -0.97672,1.12545 -4.09985,-0.9268 -3.03572,-2.14286 z"
         style="fill:#825201;fill-opacity:1;fill-rule:evenodd;stroke:#000000;stroke-width:0.44267327;stroke-linecap:butt;stroke-linejoin:miter;stroke-miterlimit:4;stroke-dasharray:none;stroke-opacity:1" />
    </g>
    <g
       style="fill:url(#radialGradient11004);fill-opacity:1;stroke:none;stroke-width:0.44267327;stroke-miterlimit:4;stroke-dasharray:none;stroke-opacity:1"
       transform="matrix(-4.4918126,-0.39298267,-0.39455901,4.5098302,1119.5493,-363.91733)"
       id="g10950">
      <path
         style="fill:url(#radialGradient11209);fill-opacity:1;fill-rule:evenodd;stroke:none;stroke-width:0.44267327;stroke-linecap:butt;stroke-linejoin:miter;stroke-miterlimit:4;stroke-dasharray:none;stroke-opacity:1"
         d="m 114.98468,183.48331 c 1.80535,-1.63275 3.83832,-1.55885 7.58929,-1.875 3.09437,-0.26081 3.78627,0.0208 5.51325,1.23147 8.37921,5.87391 29.57532,20.61395 31.54031,22.16138 1.46355,1.35488 2.33462,3.85354 -0.71428,5.26786 -4.05919,1.88297 -6.24003,2.69836 -7.32143,2.41071 l -35.89285,-25.26785 c -1.34213,-0.89551 -1.62287,-2.50154 -0.71429,-3.92857 z"
         id="path10952"
         inkscape:connector-curvature="0"
         sodipodi:nodetypes="csscsccc" />
      <path
         style="fill:url(#radialGradient11211);fill-opacity:1;fill-rule:evenodd;stroke:none;stroke-width:0.44267327;stroke-linecap:butt;stroke-linejoin:miter;stroke-miterlimit:4;stroke-dasharray:none;stroke-opacity:1"
         d="m 116.14539,187.67974 34.46429,24.28571 c 3.60433,2.75667 5.36979,-2.05865 2.67857,-3.57143 l -34.46428,-24.46429 c -3.26311,-2.43513 -6.33894,1.03024 -2.67858,3.75001 z"
         id="path10954"
         inkscape:connector-curvature="0"
         sodipodi:nodetypes="ccccc" />
      <path
         style="fill:url(#radialGradient11213);fill-opacity:1;fill-rule:evenodd;stroke:none;stroke-width:0.44267327;stroke-linecap:butt;stroke-linejoin:miter;stroke-miterlimit:4;stroke-dasharray:none;stroke-opacity:1"
         d="m 137.38008,192.19632 50,-70.71429 c 1.94101,-1.96517 4.53351,0.6386 3.03572,2.67857 l -50,70.17858 c -0.97672,1.12545 -4.09985,-0.9268 -3.03572,-2.14286 z"
         id="path10956"
         inkscape:connector-curvature="0"
         sodipodi:nodetypes="ccccc" />
    </g>
  </g>
</svg>
